%TF.GenerationSoftware,KiCad,Pcbnew,10.0.6*%
%TF.CreationDate,2026-09-04T02:30:24+01:00*%
%TF.ProjectId,VideoULA,56696465-6f55-44c4-912e-6b696361645f,02*%
%TF.SameCoordinates,Original*%
%TF.FileFunction,Legend,Top*%
%TF.FilePolarity,Positive*%
%FSLAX46Y46*%
G04 Gerber Fmt 4.6, Leading zero omitted, Abs format (unit mm)*
G04 Created by KiCad (PCBNEW 10.0.6) date 2026-09-04 02:30:24*
%MOMM*%
%LPD*%
G01*
G04 APERTURE LIST*
%ADD10C,0.100000*%
%ADD11C,0.120000*%
G04 APERTURE END LIST*
D10*
X79253000Y-66416000D02*
X91953000Y-66416000D01*
X79253000Y-67686000D02*
X80353000Y-67686000D01*
X80753000Y-67686000D02*
X81853000Y-67686000D01*
X82253000Y-67686000D02*
X83353000Y-67686000D01*
X83753000Y-67686000D02*
X84853000Y-67686000D01*
X85253000Y-67686000D02*
X86353000Y-67686000D01*
X86753000Y-67686000D02*
X87853000Y-67686000D01*
X88253000Y-67686000D02*
X89353000Y-67686000D01*
X89753000Y-67686000D02*
X90853000Y-67686000D01*
X91253000Y-67686000D02*
X91953000Y-67686000D01*
X81793000Y-66416000D02*
X81793000Y-67516000D01*
X81793000Y-67916000D02*
X81793000Y-68956000D01*
X84333000Y-66416000D02*
X84333000Y-67516000D01*
X84333000Y-67916000D02*
X84333000Y-68956000D01*
X86873000Y-66416000D02*
X86873000Y-67516000D01*
X86873000Y-67916000D02*
X86873000Y-68956000D01*
X89413000Y-66416000D02*
X89413000Y-67516000D01*
X89413000Y-67916000D02*
X89413000Y-68956000D01*
X79989667Y-66702966D02*
X79923000Y-66669633D01*
X79923000Y-66669633D02*
X79823000Y-66669633D01*
X79823000Y-66669633D02*
X79723000Y-66702966D01*
X79723000Y-66702966D02*
X79656334Y-66769633D01*
X79656334Y-66769633D02*
X79623000Y-66836300D01*
X79623000Y-66836300D02*
X79589667Y-66969633D01*
X79589667Y-66969633D02*
X79589667Y-67069633D01*
X79589667Y-67069633D02*
X79623000Y-67202966D01*
X79623000Y-67202966D02*
X79656334Y-67269633D01*
X79656334Y-67269633D02*
X79723000Y-67336300D01*
X79723000Y-67336300D02*
X79823000Y-67369633D01*
X79823000Y-67369633D02*
X79889667Y-67369633D01*
X79889667Y-67369633D02*
X79989667Y-67336300D01*
X79989667Y-67336300D02*
X80023000Y-67302966D01*
X80023000Y-67302966D02*
X80023000Y-67069633D01*
X80023000Y-67069633D02*
X79889667Y-67069633D01*
X80323000Y-67369633D02*
X80323000Y-66669633D01*
X80323000Y-66669633D02*
X80723000Y-67369633D01*
X80723000Y-67369633D02*
X80723000Y-66669633D01*
X81056333Y-67369633D02*
X81056333Y-66669633D01*
X81056333Y-66669633D02*
X81223000Y-66669633D01*
X81223000Y-66669633D02*
X81323000Y-66702966D01*
X81323000Y-66702966D02*
X81389667Y-66769633D01*
X81389667Y-66769633D02*
X81423000Y-66836300D01*
X81423000Y-66836300D02*
X81456333Y-66969633D01*
X81456333Y-66969633D02*
X81456333Y-67069633D01*
X81456333Y-67069633D02*
X81423000Y-67202966D01*
X81423000Y-67202966D02*
X81389667Y-67269633D01*
X81389667Y-67269633D02*
X81323000Y-67336300D01*
X81323000Y-67336300D02*
X81223000Y-67369633D01*
X81223000Y-67369633D02*
X81056333Y-67369633D01*
X79623000Y-67939633D02*
X80023000Y-67939633D01*
X79823000Y-68639633D02*
X79823000Y-67939633D01*
X80656333Y-68572966D02*
X80623000Y-68606300D01*
X80623000Y-68606300D02*
X80523000Y-68639633D01*
X80523000Y-68639633D02*
X80456333Y-68639633D01*
X80456333Y-68639633D02*
X80356333Y-68606300D01*
X80356333Y-68606300D02*
X80289667Y-68539633D01*
X80289667Y-68539633D02*
X80256333Y-68472966D01*
X80256333Y-68472966D02*
X80223000Y-68339633D01*
X80223000Y-68339633D02*
X80223000Y-68239633D01*
X80223000Y-68239633D02*
X80256333Y-68106300D01*
X80256333Y-68106300D02*
X80289667Y-68039633D01*
X80289667Y-68039633D02*
X80356333Y-67972966D01*
X80356333Y-67972966D02*
X80456333Y-67939633D01*
X80456333Y-67939633D02*
X80523000Y-67939633D01*
X80523000Y-67939633D02*
X80623000Y-67972966D01*
X80623000Y-67972966D02*
X80656333Y-68006300D01*
X80956333Y-68639633D02*
X80956333Y-67939633D01*
X81356333Y-68639633D02*
X81056333Y-68239633D01*
X81356333Y-67939633D02*
X80956333Y-68339633D01*
X82196333Y-66669633D02*
X82629666Y-66669633D01*
X82629666Y-66669633D02*
X82396333Y-66936300D01*
X82396333Y-66936300D02*
X82496333Y-66936300D01*
X82496333Y-66936300D02*
X82562999Y-66969633D01*
X82562999Y-66969633D02*
X82596333Y-67002966D01*
X82596333Y-67002966D02*
X82629666Y-67069633D01*
X82629666Y-67069633D02*
X82629666Y-67236300D01*
X82629666Y-67236300D02*
X82596333Y-67302966D01*
X82596333Y-67302966D02*
X82562999Y-67336300D01*
X82562999Y-67336300D02*
X82496333Y-67369633D01*
X82496333Y-67369633D02*
X82296333Y-67369633D01*
X82296333Y-67369633D02*
X82229666Y-67336300D01*
X82229666Y-67336300D02*
X82196333Y-67302966D01*
X82829666Y-66669633D02*
X83063000Y-67369633D01*
X83063000Y-67369633D02*
X83296333Y-66669633D01*
X83463000Y-66669633D02*
X83896333Y-66669633D01*
X83896333Y-66669633D02*
X83663000Y-66936300D01*
X83663000Y-66936300D02*
X83763000Y-66936300D01*
X83763000Y-66936300D02*
X83829666Y-66969633D01*
X83829666Y-66969633D02*
X83863000Y-67002966D01*
X83863000Y-67002966D02*
X83896333Y-67069633D01*
X83896333Y-67069633D02*
X83896333Y-67236300D01*
X83896333Y-67236300D02*
X83863000Y-67302966D01*
X83863000Y-67302966D02*
X83829666Y-67336300D01*
X83829666Y-67336300D02*
X83763000Y-67369633D01*
X83763000Y-67369633D02*
X83563000Y-67369633D01*
X83563000Y-67369633D02*
X83496333Y-67336300D01*
X83496333Y-67336300D02*
X83463000Y-67302966D01*
X82146333Y-67939633D02*
X82546333Y-67939633D01*
X82346333Y-68639633D02*
X82346333Y-67939633D01*
X82779666Y-68639633D02*
X82779666Y-67939633D01*
X82779666Y-67939633D02*
X82946333Y-67939633D01*
X82946333Y-67939633D02*
X83046333Y-67972966D01*
X83046333Y-67972966D02*
X83113000Y-68039633D01*
X83113000Y-68039633D02*
X83146333Y-68106300D01*
X83146333Y-68106300D02*
X83179666Y-68239633D01*
X83179666Y-68239633D02*
X83179666Y-68339633D01*
X83179666Y-68339633D02*
X83146333Y-68472966D01*
X83146333Y-68472966D02*
X83113000Y-68539633D01*
X83113000Y-68539633D02*
X83046333Y-68606300D01*
X83046333Y-68606300D02*
X82946333Y-68639633D01*
X82946333Y-68639633D02*
X82779666Y-68639633D01*
X83613000Y-67939633D02*
X83746333Y-67939633D01*
X83746333Y-67939633D02*
X83813000Y-67972966D01*
X83813000Y-67972966D02*
X83879666Y-68039633D01*
X83879666Y-68039633D02*
X83913000Y-68172966D01*
X83913000Y-68172966D02*
X83913000Y-68406300D01*
X83913000Y-68406300D02*
X83879666Y-68539633D01*
X83879666Y-68539633D02*
X83813000Y-68606300D01*
X83813000Y-68606300D02*
X83746333Y-68639633D01*
X83746333Y-68639633D02*
X83613000Y-68639633D01*
X83613000Y-68639633D02*
X83546333Y-68606300D01*
X83546333Y-68606300D02*
X83479666Y-68539633D01*
X83479666Y-68539633D02*
X83446333Y-68406300D01*
X83446333Y-68406300D02*
X83446333Y-68172966D01*
X83446333Y-68172966D02*
X83479666Y-68039633D01*
X83479666Y-68039633D02*
X83546333Y-67972966D01*
X83546333Y-67972966D02*
X83613000Y-67939633D01*
X84686333Y-67369633D02*
X84686333Y-66669633D01*
X84686333Y-66669633D02*
X85086333Y-67369633D01*
X85086333Y-67369633D02*
X85086333Y-66669633D01*
X85919666Y-66636300D02*
X85319666Y-67536300D01*
X86552999Y-67302966D02*
X86519666Y-67336300D01*
X86519666Y-67336300D02*
X86419666Y-67369633D01*
X86419666Y-67369633D02*
X86352999Y-67369633D01*
X86352999Y-67369633D02*
X86252999Y-67336300D01*
X86252999Y-67336300D02*
X86186333Y-67269633D01*
X86186333Y-67269633D02*
X86152999Y-67202966D01*
X86152999Y-67202966D02*
X86119666Y-67069633D01*
X86119666Y-67069633D02*
X86119666Y-66969633D01*
X86119666Y-66969633D02*
X86152999Y-66836300D01*
X86152999Y-66836300D02*
X86186333Y-66769633D01*
X86186333Y-66769633D02*
X86252999Y-66702966D01*
X86252999Y-66702966D02*
X86352999Y-66669633D01*
X86352999Y-66669633D02*
X86419666Y-66669633D01*
X86419666Y-66669633D02*
X86519666Y-66702966D01*
X86519666Y-66702966D02*
X86552999Y-66736300D01*
X84669666Y-67939633D02*
X85069666Y-67939633D01*
X84869666Y-68639633D02*
X84869666Y-67939633D01*
X85302999Y-68639633D02*
X85302999Y-67939633D01*
X85302999Y-67939633D02*
X85536333Y-68439633D01*
X85536333Y-68439633D02*
X85769666Y-67939633D01*
X85769666Y-67939633D02*
X85769666Y-68639633D01*
X86069666Y-68606300D02*
X86169666Y-68639633D01*
X86169666Y-68639633D02*
X86336333Y-68639633D01*
X86336333Y-68639633D02*
X86402999Y-68606300D01*
X86402999Y-68606300D02*
X86436333Y-68572966D01*
X86436333Y-68572966D02*
X86469666Y-68506300D01*
X86469666Y-68506300D02*
X86469666Y-68439633D01*
X86469666Y-68439633D02*
X86436333Y-68372966D01*
X86436333Y-68372966D02*
X86402999Y-68339633D01*
X86402999Y-68339633D02*
X86336333Y-68306300D01*
X86336333Y-68306300D02*
X86202999Y-68272966D01*
X86202999Y-68272966D02*
X86136333Y-68239633D01*
X86136333Y-68239633D02*
X86102999Y-68206300D01*
X86102999Y-68206300D02*
X86069666Y-68139633D01*
X86069666Y-68139633D02*
X86069666Y-68072966D01*
X86069666Y-68072966D02*
X86102999Y-68006300D01*
X86102999Y-68006300D02*
X86136333Y-67972966D01*
X86136333Y-67972966D02*
X86202999Y-67939633D01*
X86202999Y-67939633D02*
X86369666Y-67939633D01*
X86369666Y-67939633D02*
X86469666Y-67972966D01*
X87226333Y-67369633D02*
X87226333Y-66669633D01*
X87226333Y-66669633D02*
X87626333Y-67369633D01*
X87626333Y-67369633D02*
X87626333Y-66669633D01*
X88459666Y-66636300D02*
X87859666Y-67536300D01*
X89092999Y-67302966D02*
X89059666Y-67336300D01*
X89059666Y-67336300D02*
X88959666Y-67369633D01*
X88959666Y-67369633D02*
X88892999Y-67369633D01*
X88892999Y-67369633D02*
X88792999Y-67336300D01*
X88792999Y-67336300D02*
X88726333Y-67269633D01*
X88726333Y-67269633D02*
X88692999Y-67202966D01*
X88692999Y-67202966D02*
X88659666Y-67069633D01*
X88659666Y-67069633D02*
X88659666Y-66969633D01*
X88659666Y-66969633D02*
X88692999Y-66836300D01*
X88692999Y-66836300D02*
X88726333Y-66769633D01*
X88726333Y-66769633D02*
X88792999Y-66702966D01*
X88792999Y-66702966D02*
X88892999Y-66669633D01*
X88892999Y-66669633D02*
X88959666Y-66669633D01*
X88959666Y-66669633D02*
X89059666Y-66702966D01*
X89059666Y-66702966D02*
X89092999Y-66736300D01*
X87226333Y-68639633D02*
X87226333Y-67939633D01*
X87226333Y-67939633D02*
X87626333Y-68639633D01*
X87626333Y-68639633D02*
X87626333Y-67939633D01*
X88459666Y-67906300D02*
X87859666Y-68806300D01*
X89092999Y-68572966D02*
X89059666Y-68606300D01*
X89059666Y-68606300D02*
X88959666Y-68639633D01*
X88959666Y-68639633D02*
X88892999Y-68639633D01*
X88892999Y-68639633D02*
X88792999Y-68606300D01*
X88792999Y-68606300D02*
X88726333Y-68539633D01*
X88726333Y-68539633D02*
X88692999Y-68472966D01*
X88692999Y-68472966D02*
X88659666Y-68339633D01*
X88659666Y-68339633D02*
X88659666Y-68239633D01*
X88659666Y-68239633D02*
X88692999Y-68106300D01*
X88692999Y-68106300D02*
X88726333Y-68039633D01*
X88726333Y-68039633D02*
X88792999Y-67972966D01*
X88792999Y-67972966D02*
X88892999Y-67939633D01*
X88892999Y-67939633D02*
X88959666Y-67939633D01*
X88959666Y-67939633D02*
X89059666Y-67972966D01*
X89059666Y-67972966D02*
X89092999Y-68006300D01*
X87064533Y-65832966D02*
X87597867Y-65832966D01*
X88664533Y-65399633D02*
X88664533Y-65899633D01*
X88664533Y-65899633D02*
X88631200Y-65999633D01*
X88631200Y-65999633D02*
X88564533Y-66066300D01*
X88564533Y-66066300D02*
X88464533Y-66099633D01*
X88464533Y-66099633D02*
X88397867Y-66099633D01*
X88897866Y-65399633D02*
X89297866Y-65399633D01*
X89097866Y-66099633D02*
X89097866Y-65399633D01*
X89497866Y-65899633D02*
X89831199Y-65899633D01*
X89431199Y-66099633D02*
X89664533Y-65399633D01*
X89664533Y-65399633D02*
X89897866Y-66099633D01*
X90497866Y-65432966D02*
X90431199Y-65399633D01*
X90431199Y-65399633D02*
X90331199Y-65399633D01*
X90331199Y-65399633D02*
X90231199Y-65432966D01*
X90231199Y-65432966D02*
X90164533Y-65499633D01*
X90164533Y-65499633D02*
X90131199Y-65566300D01*
X90131199Y-65566300D02*
X90097866Y-65699633D01*
X90097866Y-65699633D02*
X90097866Y-65799633D01*
X90097866Y-65799633D02*
X90131199Y-65932966D01*
X90131199Y-65932966D02*
X90164533Y-65999633D01*
X90164533Y-65999633D02*
X90231199Y-66066300D01*
X90231199Y-66066300D02*
X90331199Y-66099633D01*
X90331199Y-66099633D02*
X90397866Y-66099633D01*
X90397866Y-66099633D02*
X90497866Y-66066300D01*
X90497866Y-66066300D02*
X90531199Y-66032966D01*
X90531199Y-66032966D02*
X90531199Y-65799633D01*
X90531199Y-65799633D02*
X90397866Y-65799633D01*
X91364532Y-65832966D02*
X91897866Y-65832966D01*
X90149667Y-66702966D02*
X90083000Y-66669633D01*
X90083000Y-66669633D02*
X89983000Y-66669633D01*
X89983000Y-66669633D02*
X89883000Y-66702966D01*
X89883000Y-66702966D02*
X89816334Y-66769633D01*
X89816334Y-66769633D02*
X89783000Y-66836300D01*
X89783000Y-66836300D02*
X89749667Y-66969633D01*
X89749667Y-66969633D02*
X89749667Y-67069633D01*
X89749667Y-67069633D02*
X89783000Y-67202966D01*
X89783000Y-67202966D02*
X89816334Y-67269633D01*
X89816334Y-67269633D02*
X89883000Y-67336300D01*
X89883000Y-67336300D02*
X89983000Y-67369633D01*
X89983000Y-67369633D02*
X90049667Y-67369633D01*
X90049667Y-67369633D02*
X90149667Y-67336300D01*
X90149667Y-67336300D02*
X90183000Y-67302966D01*
X90183000Y-67302966D02*
X90183000Y-67069633D01*
X90183000Y-67069633D02*
X90049667Y-67069633D01*
X90483000Y-67369633D02*
X90483000Y-66669633D01*
X90483000Y-66669633D02*
X90883000Y-67369633D01*
X90883000Y-67369633D02*
X90883000Y-66669633D01*
X91216333Y-67369633D02*
X91216333Y-66669633D01*
X91216333Y-66669633D02*
X91383000Y-66669633D01*
X91383000Y-66669633D02*
X91483000Y-66702966D01*
X91483000Y-66702966D02*
X91549667Y-66769633D01*
X91549667Y-66769633D02*
X91583000Y-66836300D01*
X91583000Y-66836300D02*
X91616333Y-66969633D01*
X91616333Y-66969633D02*
X91616333Y-67069633D01*
X91616333Y-67069633D02*
X91583000Y-67202966D01*
X91583000Y-67202966D02*
X91549667Y-67269633D01*
X91549667Y-67269633D02*
X91483000Y-67336300D01*
X91483000Y-67336300D02*
X91383000Y-67369633D01*
X91383000Y-67369633D02*
X91216333Y-67369633D01*
X89966333Y-67939633D02*
X90366333Y-67939633D01*
X90166333Y-68639633D02*
X90166333Y-67939633D01*
X90599666Y-68639633D02*
X90599666Y-67939633D01*
X90599666Y-67939633D02*
X90766333Y-67939633D01*
X90766333Y-67939633D02*
X90866333Y-67972966D01*
X90866333Y-67972966D02*
X90933000Y-68039633D01*
X90933000Y-68039633D02*
X90966333Y-68106300D01*
X90966333Y-68106300D02*
X90999666Y-68239633D01*
X90999666Y-68239633D02*
X90999666Y-68339633D01*
X90999666Y-68339633D02*
X90966333Y-68472966D01*
X90966333Y-68472966D02*
X90933000Y-68539633D01*
X90933000Y-68539633D02*
X90866333Y-68606300D01*
X90866333Y-68606300D02*
X90766333Y-68639633D01*
X90766333Y-68639633D02*
X90599666Y-68639633D01*
X91299666Y-68639633D02*
X91299666Y-67939633D01*
X87795733Y-42991766D02*
X87762400Y-43025100D01*
X87762400Y-43025100D02*
X87662400Y-43058433D01*
X87662400Y-43058433D02*
X87595733Y-43058433D01*
X87595733Y-43058433D02*
X87495733Y-43025100D01*
X87495733Y-43025100D02*
X87429067Y-42958433D01*
X87429067Y-42958433D02*
X87395733Y-42891766D01*
X87395733Y-42891766D02*
X87362400Y-42758433D01*
X87362400Y-42758433D02*
X87362400Y-42658433D01*
X87362400Y-42658433D02*
X87395733Y-42525100D01*
X87395733Y-42525100D02*
X87429067Y-42458433D01*
X87429067Y-42458433D02*
X87495733Y-42391766D01*
X87495733Y-42391766D02*
X87595733Y-42358433D01*
X87595733Y-42358433D02*
X87662400Y-42358433D01*
X87662400Y-42358433D02*
X87762400Y-42391766D01*
X87762400Y-42391766D02*
X87795733Y-42425100D01*
X88129067Y-43058433D02*
X88262400Y-43058433D01*
X88262400Y-43058433D02*
X88329067Y-43025100D01*
X88329067Y-43025100D02*
X88362400Y-42991766D01*
X88362400Y-42991766D02*
X88429067Y-42891766D01*
X88429067Y-42891766D02*
X88462400Y-42758433D01*
X88462400Y-42758433D02*
X88462400Y-42491766D01*
X88462400Y-42491766D02*
X88429067Y-42425100D01*
X88429067Y-42425100D02*
X88395733Y-42391766D01*
X88395733Y-42391766D02*
X88329067Y-42358433D01*
X88329067Y-42358433D02*
X88195733Y-42358433D01*
X88195733Y-42358433D02*
X88129067Y-42391766D01*
X88129067Y-42391766D02*
X88095733Y-42425100D01*
X88095733Y-42425100D02*
X88062400Y-42491766D01*
X88062400Y-42491766D02*
X88062400Y-42658433D01*
X88062400Y-42658433D02*
X88095733Y-42725100D01*
X88095733Y-42725100D02*
X88129067Y-42758433D01*
X88129067Y-42758433D02*
X88195733Y-42791766D01*
X88195733Y-42791766D02*
X88329067Y-42791766D01*
X88329067Y-42791766D02*
X88395733Y-42758433D01*
X88395733Y-42758433D02*
X88429067Y-42725100D01*
X88429067Y-42725100D02*
X88462400Y-42658433D01*
X84248410Y-47643366D02*
X84215077Y-47676700D01*
X84215077Y-47676700D02*
X84115077Y-47710033D01*
X84115077Y-47710033D02*
X84048410Y-47710033D01*
X84048410Y-47710033D02*
X83948410Y-47676700D01*
X83948410Y-47676700D02*
X83881744Y-47610033D01*
X83881744Y-47610033D02*
X83848410Y-47543366D01*
X83848410Y-47543366D02*
X83815077Y-47410033D01*
X83815077Y-47410033D02*
X83815077Y-47310033D01*
X83815077Y-47310033D02*
X83848410Y-47176700D01*
X83848410Y-47176700D02*
X83881744Y-47110033D01*
X83881744Y-47110033D02*
X83948410Y-47043366D01*
X83948410Y-47043366D02*
X84048410Y-47010033D01*
X84048410Y-47010033D02*
X84115077Y-47010033D01*
X84115077Y-47010033D02*
X84215077Y-47043366D01*
X84215077Y-47043366D02*
X84248410Y-47076700D01*
X84881744Y-47010033D02*
X84548410Y-47010033D01*
X84548410Y-47010033D02*
X84515077Y-47343366D01*
X84515077Y-47343366D02*
X84548410Y-47310033D01*
X84548410Y-47310033D02*
X84615077Y-47276700D01*
X84615077Y-47276700D02*
X84781744Y-47276700D01*
X84781744Y-47276700D02*
X84848410Y-47310033D01*
X84848410Y-47310033D02*
X84881744Y-47343366D01*
X84881744Y-47343366D02*
X84915077Y-47410033D01*
X84915077Y-47410033D02*
X84915077Y-47576700D01*
X84915077Y-47576700D02*
X84881744Y-47643366D01*
X84881744Y-47643366D02*
X84848410Y-47676700D01*
X84848410Y-47676700D02*
X84781744Y-47710033D01*
X84781744Y-47710033D02*
X84615077Y-47710033D01*
X84615077Y-47710033D02*
X84548410Y-47676700D01*
X84548410Y-47676700D02*
X84515077Y-47643366D01*
X84495733Y-42991766D02*
X84462400Y-43025100D01*
X84462400Y-43025100D02*
X84362400Y-43058433D01*
X84362400Y-43058433D02*
X84295733Y-43058433D01*
X84295733Y-43058433D02*
X84195733Y-43025100D01*
X84195733Y-43025100D02*
X84129067Y-42958433D01*
X84129067Y-42958433D02*
X84095733Y-42891766D01*
X84095733Y-42891766D02*
X84062400Y-42758433D01*
X84062400Y-42758433D02*
X84062400Y-42658433D01*
X84062400Y-42658433D02*
X84095733Y-42525100D01*
X84095733Y-42525100D02*
X84129067Y-42458433D01*
X84129067Y-42458433D02*
X84195733Y-42391766D01*
X84195733Y-42391766D02*
X84295733Y-42358433D01*
X84295733Y-42358433D02*
X84362400Y-42358433D01*
X84362400Y-42358433D02*
X84462400Y-42391766D01*
X84462400Y-42391766D02*
X84495733Y-42425100D01*
X84729067Y-42358433D02*
X85195733Y-42358433D01*
X85195733Y-42358433D02*
X84895733Y-43058433D01*
X82962432Y-63582633D02*
X82729099Y-63249300D01*
X82562432Y-63582633D02*
X82562432Y-62882633D01*
X82562432Y-62882633D02*
X82829099Y-62882633D01*
X82829099Y-62882633D02*
X82895766Y-62915966D01*
X82895766Y-62915966D02*
X82929099Y-62949300D01*
X82929099Y-62949300D02*
X82962432Y-63015966D01*
X82962432Y-63015966D02*
X82962432Y-63115966D01*
X82962432Y-63115966D02*
X82929099Y-63182633D01*
X82929099Y-63182633D02*
X82895766Y-63215966D01*
X82895766Y-63215966D02*
X82829099Y-63249300D01*
X82829099Y-63249300D02*
X82562432Y-63249300D01*
X83262432Y-63582633D02*
X83262432Y-62882633D01*
X83262432Y-62882633D02*
X83662432Y-63582633D01*
X83662432Y-63582633D02*
X83662432Y-62882633D01*
X83962432Y-62949300D02*
X83995765Y-62915966D01*
X83995765Y-62915966D02*
X84062432Y-62882633D01*
X84062432Y-62882633D02*
X84229099Y-62882633D01*
X84229099Y-62882633D02*
X84295765Y-62915966D01*
X84295765Y-62915966D02*
X84329099Y-62949300D01*
X84329099Y-62949300D02*
X84362432Y-63015966D01*
X84362432Y-63015966D02*
X84362432Y-63082633D01*
X84362432Y-63082633D02*
X84329099Y-63182633D01*
X84329099Y-63182633D02*
X83929099Y-63582633D01*
X83929099Y-63582633D02*
X84362432Y-63582633D01*
X85459933Y-46119366D02*
X85426600Y-46152700D01*
X85426600Y-46152700D02*
X85326600Y-46186033D01*
X85326600Y-46186033D02*
X85259933Y-46186033D01*
X85259933Y-46186033D02*
X85159933Y-46152700D01*
X85159933Y-46152700D02*
X85093267Y-46086033D01*
X85093267Y-46086033D02*
X85059933Y-46019366D01*
X85059933Y-46019366D02*
X85026600Y-45886033D01*
X85026600Y-45886033D02*
X85026600Y-45786033D01*
X85026600Y-45786033D02*
X85059933Y-45652700D01*
X85059933Y-45652700D02*
X85093267Y-45586033D01*
X85093267Y-45586033D02*
X85159933Y-45519366D01*
X85159933Y-45519366D02*
X85259933Y-45486033D01*
X85259933Y-45486033D02*
X85326600Y-45486033D01*
X85326600Y-45486033D02*
X85426600Y-45519366D01*
X85426600Y-45519366D02*
X85459933Y-45552700D01*
X85859933Y-45786033D02*
X85793267Y-45752700D01*
X85793267Y-45752700D02*
X85759933Y-45719366D01*
X85759933Y-45719366D02*
X85726600Y-45652700D01*
X85726600Y-45652700D02*
X85726600Y-45619366D01*
X85726600Y-45619366D02*
X85759933Y-45552700D01*
X85759933Y-45552700D02*
X85793267Y-45519366D01*
X85793267Y-45519366D02*
X85859933Y-45486033D01*
X85859933Y-45486033D02*
X85993267Y-45486033D01*
X85993267Y-45486033D02*
X86059933Y-45519366D01*
X86059933Y-45519366D02*
X86093267Y-45552700D01*
X86093267Y-45552700D02*
X86126600Y-45619366D01*
X86126600Y-45619366D02*
X86126600Y-45652700D01*
X86126600Y-45652700D02*
X86093267Y-45719366D01*
X86093267Y-45719366D02*
X86059933Y-45752700D01*
X86059933Y-45752700D02*
X85993267Y-45786033D01*
X85993267Y-45786033D02*
X85859933Y-45786033D01*
X85859933Y-45786033D02*
X85793267Y-45819366D01*
X85793267Y-45819366D02*
X85759933Y-45852700D01*
X85759933Y-45852700D02*
X85726600Y-45919366D01*
X85726600Y-45919366D02*
X85726600Y-46052700D01*
X85726600Y-46052700D02*
X85759933Y-46119366D01*
X85759933Y-46119366D02*
X85793267Y-46152700D01*
X85793267Y-46152700D02*
X85859933Y-46186033D01*
X85859933Y-46186033D02*
X85993267Y-46186033D01*
X85993267Y-46186033D02*
X86059933Y-46152700D01*
X86059933Y-46152700D02*
X86093267Y-46119366D01*
X86093267Y-46119366D02*
X86126600Y-46052700D01*
X86126600Y-46052700D02*
X86126600Y-45919366D01*
X86126600Y-45919366D02*
X86093267Y-45852700D01*
X86093267Y-45852700D02*
X86059933Y-45819366D01*
X86059933Y-45819366D02*
X85993267Y-45786033D01*
X81361266Y-46603633D02*
X81361266Y-47170300D01*
X81361266Y-47170300D02*
X81394600Y-47236966D01*
X81394600Y-47236966D02*
X81427933Y-47270300D01*
X81427933Y-47270300D02*
X81494600Y-47303633D01*
X81494600Y-47303633D02*
X81627933Y-47303633D01*
X81627933Y-47303633D02*
X81694600Y-47270300D01*
X81694600Y-47270300D02*
X81727933Y-47236966D01*
X81727933Y-47236966D02*
X81761266Y-47170300D01*
X81761266Y-47170300D02*
X81761266Y-46603633D01*
X82027933Y-46603633D02*
X82461266Y-46603633D01*
X82461266Y-46603633D02*
X82227933Y-46870300D01*
X82227933Y-46870300D02*
X82327933Y-46870300D01*
X82327933Y-46870300D02*
X82394599Y-46903633D01*
X82394599Y-46903633D02*
X82427933Y-46936966D01*
X82427933Y-46936966D02*
X82461266Y-47003633D01*
X82461266Y-47003633D02*
X82461266Y-47170300D01*
X82461266Y-47170300D02*
X82427933Y-47236966D01*
X82427933Y-47236966D02*
X82394599Y-47270300D01*
X82394599Y-47270300D02*
X82327933Y-47303633D01*
X82327933Y-47303633D02*
X82127933Y-47303633D01*
X82127933Y-47303633D02*
X82061266Y-47270300D01*
X82061266Y-47270300D02*
X82027933Y-47236966D01*
X86116699Y-63515966D02*
X86083366Y-63549300D01*
X86083366Y-63549300D02*
X85983366Y-63582633D01*
X85983366Y-63582633D02*
X85916699Y-63582633D01*
X85916699Y-63582633D02*
X85816699Y-63549300D01*
X85816699Y-63549300D02*
X85750033Y-63482633D01*
X85750033Y-63482633D02*
X85716699Y-63415966D01*
X85716699Y-63415966D02*
X85683366Y-63282633D01*
X85683366Y-63282633D02*
X85683366Y-63182633D01*
X85683366Y-63182633D02*
X85716699Y-63049300D01*
X85716699Y-63049300D02*
X85750033Y-62982633D01*
X85750033Y-62982633D02*
X85816699Y-62915966D01*
X85816699Y-62915966D02*
X85916699Y-62882633D01*
X85916699Y-62882633D02*
X85983366Y-62882633D01*
X85983366Y-62882633D02*
X86083366Y-62915966D01*
X86083366Y-62915966D02*
X86116699Y-62949300D01*
X86783366Y-63582633D02*
X86383366Y-63582633D01*
X86583366Y-63582633D02*
X86583366Y-62882633D01*
X86583366Y-62882633D02*
X86516699Y-62982633D01*
X86516699Y-62982633D02*
X86450033Y-63049300D01*
X86450033Y-63049300D02*
X86383366Y-63082633D01*
X79422933Y-42844433D02*
X79889599Y-43544433D01*
X79889599Y-42844433D02*
X79422933Y-43544433D01*
X80522933Y-43544433D02*
X80122933Y-43544433D01*
X80322933Y-43544433D02*
X80322933Y-42844433D01*
X80322933Y-42844433D02*
X80256266Y-42944433D01*
X80256266Y-42944433D02*
X80189600Y-43011100D01*
X80189600Y-43011100D02*
X80122933Y-43044433D01*
X89872398Y-39381981D02*
X89639065Y-39048648D01*
X89472398Y-39381981D02*
X89472398Y-38681981D01*
X89472398Y-38681981D02*
X89739065Y-38681981D01*
X89739065Y-38681981D02*
X89805732Y-38715314D01*
X89805732Y-38715314D02*
X89839065Y-38748648D01*
X89839065Y-38748648D02*
X89872398Y-38815314D01*
X89872398Y-38815314D02*
X89872398Y-38915314D01*
X89872398Y-38915314D02*
X89839065Y-38981981D01*
X89839065Y-38981981D02*
X89805732Y-39015314D01*
X89805732Y-39015314D02*
X89739065Y-39048648D01*
X89739065Y-39048648D02*
X89472398Y-39048648D01*
X90172398Y-39381981D02*
X90172398Y-38681981D01*
X90172398Y-38681981D02*
X90572398Y-39381981D01*
X90572398Y-39381981D02*
X90572398Y-38681981D01*
X91272398Y-39381981D02*
X90872398Y-39381981D01*
X91072398Y-39381981D02*
X91072398Y-38681981D01*
X91072398Y-38681981D02*
X91005731Y-38781981D01*
X91005731Y-38781981D02*
X90939065Y-38848648D01*
X90939065Y-38848648D02*
X90872398Y-38881981D01*
X86145733Y-43058433D02*
X85912400Y-42725100D01*
X85745733Y-43058433D02*
X85745733Y-42358433D01*
X85745733Y-42358433D02*
X86012400Y-42358433D01*
X86012400Y-42358433D02*
X86079067Y-42391766D01*
X86079067Y-42391766D02*
X86112400Y-42425100D01*
X86112400Y-42425100D02*
X86145733Y-42491766D01*
X86145733Y-42491766D02*
X86145733Y-42591766D01*
X86145733Y-42591766D02*
X86112400Y-42658433D01*
X86112400Y-42658433D02*
X86079067Y-42691766D01*
X86079067Y-42691766D02*
X86012400Y-42725100D01*
X86012400Y-42725100D02*
X85745733Y-42725100D01*
X86412400Y-42425100D02*
X86445733Y-42391766D01*
X86445733Y-42391766D02*
X86512400Y-42358433D01*
X86512400Y-42358433D02*
X86679067Y-42358433D01*
X86679067Y-42358433D02*
X86745733Y-42391766D01*
X86745733Y-42391766D02*
X86779067Y-42425100D01*
X86779067Y-42425100D02*
X86812400Y-42491766D01*
X86812400Y-42491766D02*
X86812400Y-42558433D01*
X86812400Y-42558433D02*
X86779067Y-42658433D01*
X86779067Y-42658433D02*
X86379067Y-43058433D01*
X86379067Y-43058433D02*
X86812400Y-43058433D01*
X79941133Y-47224033D02*
X79707800Y-46890700D01*
X79541133Y-47224033D02*
X79541133Y-46524033D01*
X79541133Y-46524033D02*
X79807800Y-46524033D01*
X79807800Y-46524033D02*
X79874467Y-46557366D01*
X79874467Y-46557366D02*
X79907800Y-46590700D01*
X79907800Y-46590700D02*
X79941133Y-46657366D01*
X79941133Y-46657366D02*
X79941133Y-46757366D01*
X79941133Y-46757366D02*
X79907800Y-46824033D01*
X79907800Y-46824033D02*
X79874467Y-46857366D01*
X79874467Y-46857366D02*
X79807800Y-46890700D01*
X79807800Y-46890700D02*
X79541133Y-46890700D01*
X80607800Y-47224033D02*
X80207800Y-47224033D01*
X80407800Y-47224033D02*
X80407800Y-46524033D01*
X80407800Y-46524033D02*
X80341133Y-46624033D01*
X80341133Y-46624033D02*
X80274467Y-46690700D01*
X80274467Y-46690700D02*
X80207800Y-46724033D01*
X80190852Y-63515966D02*
X80157519Y-63549300D01*
X80157519Y-63549300D02*
X80057519Y-63582633D01*
X80057519Y-63582633D02*
X79990852Y-63582633D01*
X79990852Y-63582633D02*
X79890852Y-63549300D01*
X79890852Y-63549300D02*
X79824186Y-63482633D01*
X79824186Y-63482633D02*
X79790852Y-63415966D01*
X79790852Y-63415966D02*
X79757519Y-63282633D01*
X79757519Y-63282633D02*
X79757519Y-63182633D01*
X79757519Y-63182633D02*
X79790852Y-63049300D01*
X79790852Y-63049300D02*
X79824186Y-62982633D01*
X79824186Y-62982633D02*
X79890852Y-62915966D01*
X79890852Y-62915966D02*
X79990852Y-62882633D01*
X79990852Y-62882633D02*
X80057519Y-62882633D01*
X80057519Y-62882633D02*
X80157519Y-62915966D01*
X80157519Y-62915966D02*
X80190852Y-62949300D01*
X80857519Y-63582633D02*
X80457519Y-63582633D01*
X80657519Y-63582633D02*
X80657519Y-62882633D01*
X80657519Y-62882633D02*
X80590852Y-62982633D01*
X80590852Y-62982633D02*
X80524186Y-63049300D01*
X80524186Y-63049300D02*
X80457519Y-63082633D01*
X81524186Y-63582633D02*
X81124186Y-63582633D01*
X81324186Y-63582633D02*
X81324186Y-62882633D01*
X81324186Y-62882633D02*
X81257519Y-62982633D01*
X81257519Y-62982633D02*
X81190853Y-63049300D01*
X81190853Y-63049300D02*
X81124186Y-63082633D01*
X91212055Y-47643366D02*
X91178722Y-47676700D01*
X91178722Y-47676700D02*
X91078722Y-47710033D01*
X91078722Y-47710033D02*
X91012055Y-47710033D01*
X91012055Y-47710033D02*
X90912055Y-47676700D01*
X90912055Y-47676700D02*
X90845389Y-47610033D01*
X90845389Y-47610033D02*
X90812055Y-47543366D01*
X90812055Y-47543366D02*
X90778722Y-47410033D01*
X90778722Y-47410033D02*
X90778722Y-47310033D01*
X90778722Y-47310033D02*
X90812055Y-47176700D01*
X90812055Y-47176700D02*
X90845389Y-47110033D01*
X90845389Y-47110033D02*
X90912055Y-47043366D01*
X90912055Y-47043366D02*
X91012055Y-47010033D01*
X91012055Y-47010033D02*
X91078722Y-47010033D01*
X91078722Y-47010033D02*
X91178722Y-47043366D01*
X91178722Y-47043366D02*
X91212055Y-47076700D01*
X91812055Y-47010033D02*
X91678722Y-47010033D01*
X91678722Y-47010033D02*
X91612055Y-47043366D01*
X91612055Y-47043366D02*
X91578722Y-47076700D01*
X91578722Y-47076700D02*
X91512055Y-47176700D01*
X91512055Y-47176700D02*
X91478722Y-47310033D01*
X91478722Y-47310033D02*
X91478722Y-47576700D01*
X91478722Y-47576700D02*
X91512055Y-47643366D01*
X91512055Y-47643366D02*
X91545389Y-47676700D01*
X91545389Y-47676700D02*
X91612055Y-47710033D01*
X91612055Y-47710033D02*
X91745389Y-47710033D01*
X91745389Y-47710033D02*
X91812055Y-47676700D01*
X91812055Y-47676700D02*
X91845389Y-47643366D01*
X91845389Y-47643366D02*
X91878722Y-47576700D01*
X91878722Y-47576700D02*
X91878722Y-47410033D01*
X91878722Y-47410033D02*
X91845389Y-47343366D01*
X91845389Y-47343366D02*
X91812055Y-47310033D01*
X91812055Y-47310033D02*
X91745389Y-47276700D01*
X91745389Y-47276700D02*
X91612055Y-47276700D01*
X91612055Y-47276700D02*
X91545389Y-47310033D01*
X91545389Y-47310033D02*
X91512055Y-47343366D01*
X91512055Y-47343366D02*
X91478722Y-47410033D01*
X89676333Y-64432766D02*
X89643000Y-64466100D01*
X89643000Y-64466100D02*
X89543000Y-64499433D01*
X89543000Y-64499433D02*
X89476333Y-64499433D01*
X89476333Y-64499433D02*
X89376333Y-64466100D01*
X89376333Y-64466100D02*
X89309667Y-64399433D01*
X89309667Y-64399433D02*
X89276333Y-64332766D01*
X89276333Y-64332766D02*
X89243000Y-64199433D01*
X89243000Y-64199433D02*
X89243000Y-64099433D01*
X89243000Y-64099433D02*
X89276333Y-63966100D01*
X89276333Y-63966100D02*
X89309667Y-63899433D01*
X89309667Y-63899433D02*
X89376333Y-63832766D01*
X89376333Y-63832766D02*
X89476333Y-63799433D01*
X89476333Y-63799433D02*
X89543000Y-63799433D01*
X89543000Y-63799433D02*
X89643000Y-63832766D01*
X89643000Y-63832766D02*
X89676333Y-63866100D01*
X89943000Y-63866100D02*
X89976333Y-63832766D01*
X89976333Y-63832766D02*
X90043000Y-63799433D01*
X90043000Y-63799433D02*
X90209667Y-63799433D01*
X90209667Y-63799433D02*
X90276333Y-63832766D01*
X90276333Y-63832766D02*
X90309667Y-63866100D01*
X90309667Y-63866100D02*
X90343000Y-63932766D01*
X90343000Y-63932766D02*
X90343000Y-63999433D01*
X90343000Y-63999433D02*
X90309667Y-64099433D01*
X90309667Y-64099433D02*
X89909667Y-64499433D01*
X89909667Y-64499433D02*
X90343000Y-64499433D01*
X87600666Y-43504833D02*
X87600666Y-44071500D01*
X87600666Y-44071500D02*
X87634000Y-44138166D01*
X87634000Y-44138166D02*
X87667333Y-44171500D01*
X87667333Y-44171500D02*
X87734000Y-44204833D01*
X87734000Y-44204833D02*
X87867333Y-44204833D01*
X87867333Y-44204833D02*
X87934000Y-44171500D01*
X87934000Y-44171500D02*
X87967333Y-44138166D01*
X87967333Y-44138166D02*
X88000666Y-44071500D01*
X88000666Y-44071500D02*
X88000666Y-43504833D01*
X88300666Y-43571500D02*
X88333999Y-43538166D01*
X88333999Y-43538166D02*
X88400666Y-43504833D01*
X88400666Y-43504833D02*
X88567333Y-43504833D01*
X88567333Y-43504833D02*
X88633999Y-43538166D01*
X88633999Y-43538166D02*
X88667333Y-43571500D01*
X88667333Y-43571500D02*
X88700666Y-43638166D01*
X88700666Y-43638166D02*
X88700666Y-43704833D01*
X88700666Y-43704833D02*
X88667333Y-43804833D01*
X88667333Y-43804833D02*
X88267333Y-44204833D01*
X88267333Y-44204833D02*
X88700666Y-44204833D01*
X91212055Y-49167366D02*
X91178722Y-49200700D01*
X91178722Y-49200700D02*
X91078722Y-49234033D01*
X91078722Y-49234033D02*
X91012055Y-49234033D01*
X91012055Y-49234033D02*
X90912055Y-49200700D01*
X90912055Y-49200700D02*
X90845389Y-49134033D01*
X90845389Y-49134033D02*
X90812055Y-49067366D01*
X90812055Y-49067366D02*
X90778722Y-48934033D01*
X90778722Y-48934033D02*
X90778722Y-48834033D01*
X90778722Y-48834033D02*
X90812055Y-48700700D01*
X90812055Y-48700700D02*
X90845389Y-48634033D01*
X90845389Y-48634033D02*
X90912055Y-48567366D01*
X90912055Y-48567366D02*
X91012055Y-48534033D01*
X91012055Y-48534033D02*
X91078722Y-48534033D01*
X91078722Y-48534033D02*
X91178722Y-48567366D01*
X91178722Y-48567366D02*
X91212055Y-48600700D01*
X91445389Y-48534033D02*
X91878722Y-48534033D01*
X91878722Y-48534033D02*
X91645389Y-48800700D01*
X91645389Y-48800700D02*
X91745389Y-48800700D01*
X91745389Y-48800700D02*
X91812055Y-48834033D01*
X91812055Y-48834033D02*
X91845389Y-48867366D01*
X91845389Y-48867366D02*
X91878722Y-48934033D01*
X91878722Y-48934033D02*
X91878722Y-49100700D01*
X91878722Y-49100700D02*
X91845389Y-49167366D01*
X91845389Y-49167366D02*
X91812055Y-49200700D01*
X91812055Y-49200700D02*
X91745389Y-49234033D01*
X91745389Y-49234033D02*
X91545389Y-49234033D01*
X91545389Y-49234033D02*
X91478722Y-49200700D01*
X91478722Y-49200700D02*
X91445389Y-49167366D01*
X83581743Y-49167366D02*
X83548410Y-49200700D01*
X83548410Y-49200700D02*
X83448410Y-49234033D01*
X83448410Y-49234033D02*
X83381743Y-49234033D01*
X83381743Y-49234033D02*
X83281743Y-49200700D01*
X83281743Y-49200700D02*
X83215077Y-49134033D01*
X83215077Y-49134033D02*
X83181743Y-49067366D01*
X83181743Y-49067366D02*
X83148410Y-48934033D01*
X83148410Y-48934033D02*
X83148410Y-48834033D01*
X83148410Y-48834033D02*
X83181743Y-48700700D01*
X83181743Y-48700700D02*
X83215077Y-48634033D01*
X83215077Y-48634033D02*
X83281743Y-48567366D01*
X83281743Y-48567366D02*
X83381743Y-48534033D01*
X83381743Y-48534033D02*
X83448410Y-48534033D01*
X83448410Y-48534033D02*
X83548410Y-48567366D01*
X83548410Y-48567366D02*
X83581743Y-48600700D01*
X84248410Y-49234033D02*
X83848410Y-49234033D01*
X84048410Y-49234033D02*
X84048410Y-48534033D01*
X84048410Y-48534033D02*
X83981743Y-48634033D01*
X83981743Y-48634033D02*
X83915077Y-48700700D01*
X83915077Y-48700700D02*
X83848410Y-48734033D01*
X84681744Y-48534033D02*
X84748410Y-48534033D01*
X84748410Y-48534033D02*
X84815077Y-48567366D01*
X84815077Y-48567366D02*
X84848410Y-48600700D01*
X84848410Y-48600700D02*
X84881744Y-48667366D01*
X84881744Y-48667366D02*
X84915077Y-48800700D01*
X84915077Y-48800700D02*
X84915077Y-48967366D01*
X84915077Y-48967366D02*
X84881744Y-49100700D01*
X84881744Y-49100700D02*
X84848410Y-49167366D01*
X84848410Y-49167366D02*
X84815077Y-49200700D01*
X84815077Y-49200700D02*
X84748410Y-49234033D01*
X84748410Y-49234033D02*
X84681744Y-49234033D01*
X84681744Y-49234033D02*
X84615077Y-49200700D01*
X84615077Y-49200700D02*
X84581744Y-49167366D01*
X84581744Y-49167366D02*
X84548410Y-49100700D01*
X84548410Y-49100700D02*
X84515077Y-48967366D01*
X84515077Y-48967366D02*
X84515077Y-48800700D01*
X84515077Y-48800700D02*
X84548410Y-48667366D01*
X84548410Y-48667366D02*
X84581744Y-48600700D01*
X84581744Y-48600700D02*
X84615077Y-48567366D01*
X84615077Y-48567366D02*
X84681744Y-48534033D01*
X80039466Y-50058033D02*
X80039466Y-50624700D01*
X80039466Y-50624700D02*
X80072800Y-50691366D01*
X80072800Y-50691366D02*
X80106133Y-50724700D01*
X80106133Y-50724700D02*
X80172800Y-50758033D01*
X80172800Y-50758033D02*
X80306133Y-50758033D01*
X80306133Y-50758033D02*
X80372800Y-50724700D01*
X80372800Y-50724700D02*
X80406133Y-50691366D01*
X80406133Y-50691366D02*
X80439466Y-50624700D01*
X80439466Y-50624700D02*
X80439466Y-50058033D01*
X81139466Y-50758033D02*
X80739466Y-50758033D01*
X80939466Y-50758033D02*
X80939466Y-50058033D01*
X80939466Y-50058033D02*
X80872799Y-50158033D01*
X80872799Y-50158033D02*
X80806133Y-50224700D01*
X80806133Y-50224700D02*
X80739466Y-50258033D01*
%TO.C,C9*%
D11*
X87402400Y-41080380D02*
X87402400Y-40799220D01*
X88422400Y-41080380D02*
X88422400Y-40799220D01*
%TO.C,C5*%
X86173620Y-46881400D02*
X86454780Y-46881400D01*
X86173620Y-47901400D02*
X86454780Y-47901400D01*
%TO.C,C7*%
X84102400Y-41080380D02*
X84102400Y-40799220D01*
X85122400Y-41080380D02*
X85122400Y-40799220D01*
%TO.C,RN2*%
X81765766Y-65514000D02*
X81765766Y-64514000D01*
X85125766Y-65514000D02*
X85125766Y-64514000D01*
%TO.C,C8*%
X86209600Y-44660020D02*
X86209600Y-44941180D01*
X87229600Y-44660020D02*
X87229600Y-44941180D01*
%TO.C,U3*%
X81554600Y-43389800D02*
X81779600Y-43389800D01*
X81554600Y-44114800D02*
X81554600Y-43389800D01*
X81554600Y-46109800D02*
X81554600Y-45384800D01*
X81779600Y-46109800D02*
X81554600Y-46109800D01*
X84549600Y-43389800D02*
X84774600Y-43389800D01*
X84774600Y-43389800D02*
X84774600Y-44114800D01*
X84774600Y-45384800D02*
X84774600Y-46109800D01*
X84774600Y-46109800D02*
X84549600Y-46109800D01*
X85284600Y-44499800D02*
X85614600Y-44259800D01*
X85614600Y-44739800D01*
X85284600Y-44499800D01*
G36*
X85614600Y-44739800D02*
G01*
X85284600Y-44499800D01*
X85614600Y-44259800D01*
X85614600Y-44739800D01*
G37*
%TO.C,C1*%
X85723366Y-64873420D02*
X85723366Y-65154580D01*
X86743366Y-64873420D02*
X86743366Y-65154580D01*
%TO.C,X1*%
X83752732Y-39199348D02*
X79432732Y-39199348D01*
X83752732Y-42819348D02*
X83752732Y-39199348D01*
%TO.C,RN1*%
X89855732Y-39583348D02*
X90855732Y-39583348D01*
X89855732Y-42943348D02*
X90855732Y-42943348D01*
%TO.C,J1*%
X79143000Y-68973000D02*
X92063000Y-68973000D01*
X79143000Y-71623000D02*
X79143000Y-68973000D01*
X79143000Y-74273000D02*
X79143000Y-72893000D01*
X80523000Y-74273000D02*
X79143000Y-74273000D01*
X81793000Y-71623000D02*
X79143000Y-71623000D01*
X81793000Y-74273000D02*
X81793000Y-71623000D01*
X81793000Y-74273000D02*
X92063000Y-74273000D01*
X92063000Y-74273000D02*
X92063000Y-68973000D01*
%TO.C,R2*%
X85739900Y-40702542D02*
X85739900Y-41177058D01*
X86784900Y-40702542D02*
X86784900Y-41177058D01*
%TO.C,R1*%
X79535300Y-45342658D02*
X79535300Y-44868142D01*
X80580300Y-45342658D02*
X80580300Y-44868142D01*
%TO.C,C11*%
X80130853Y-64873420D02*
X80130853Y-65154580D01*
X81150853Y-64873420D02*
X81150853Y-65154580D01*
%TO.C,C6*%
X89239020Y-46881400D02*
X89520180Y-46881400D01*
X89239020Y-47901400D02*
X89520180Y-47901400D01*
%TO.C,C2*%
X90579732Y-63125768D02*
X90579732Y-63406928D01*
X91599732Y-63125768D02*
X91599732Y-63406928D01*
%TO.C,IC6*%
X79143000Y-38543000D02*
X79143000Y-74223000D01*
X79143000Y-74223000D02*
X92063000Y-74223000D01*
X84603000Y-38543000D02*
X79143000Y-38543000D01*
X92063000Y-38543000D02*
X86603000Y-38543000D01*
X92063000Y-74223000D02*
X92063000Y-38543000D01*
X86603000Y-38543000D02*
G75*
G02*
X84603000Y-38543000I-1000000J0D01*
G01*
%TO.C,U2*%
X88952200Y-43316800D02*
X90772200Y-43316800D01*
X88952200Y-44316800D02*
X88952200Y-43316800D01*
X88952200Y-46436800D02*
X88952200Y-45436800D01*
X90772200Y-43316800D02*
X90772200Y-43366800D01*
X90772200Y-44486800D02*
X90772200Y-45266800D01*
X90772200Y-46386800D02*
X90772200Y-46436800D01*
X90772200Y-46436800D02*
X88952200Y-46436800D01*
X91312200Y-45256800D02*
X91072200Y-44926800D01*
X91552200Y-44926800D01*
X91312200Y-45256800D01*
G36*
X91312200Y-45256800D02*
G01*
X91072200Y-44926800D01*
X91552200Y-44926800D01*
X91312200Y-45256800D01*
G37*
%TO.C,C3*%
X89239020Y-48405400D02*
X89520180Y-48405400D01*
X89239020Y-49425400D02*
X89520180Y-49425400D01*
%TO.C,C10*%
X86173620Y-48405400D02*
X86454780Y-48405400D01*
X86173620Y-49425400D02*
X86454780Y-49425400D01*
%TO.C,U1*%
X80493000Y-51273000D02*
X81443000Y-51273000D01*
X80493000Y-52223000D02*
X80493000Y-51273000D01*
X80493000Y-61493000D02*
X80493000Y-60543000D01*
X81443000Y-61493000D02*
X80493000Y-61493000D01*
X89763000Y-51273000D02*
X90713000Y-51273000D01*
X90713000Y-51273000D02*
X90713000Y-52223000D01*
X90713000Y-60543000D02*
X90713000Y-61493000D01*
X90713000Y-61493000D02*
X89763000Y-61493000D01*
X89763000Y-50633000D02*
X90233000Y-50293000D01*
X90233000Y-50973000D01*
X89763000Y-50633000D01*
G36*
X90233000Y-50973000D02*
G01*
X89763000Y-50633000D01*
X90233000Y-50293000D01*
X90233000Y-50973000D01*
G37*
%TD*%
M02*
