%TF.GenerationSoftware,KiCad,Pcbnew,10.0.6*%
%TF.CreationDate,2026-09-04T02:30:24+01:00*%
%TF.ProjectId,VideoULA,56696465-6f55-44c4-912e-6b696361645f,02*%
%TF.SameCoordinates,Original*%
%TF.FileFunction,Soldermask,Bot*%
%TF.FilePolarity,Negative*%
%FSLAX46Y46*%
G04 Gerber Fmt 4.6, Leading zero omitted, Abs format (unit mm)*
G04 Created by KiCad (PCBNEW 10.0.6) date 2026-09-04 02:30:24*
%MOMM*%
%LPD*%
G01*
G04 APERTURE LIST*
G04 Aperture macros list*
%AMRoundRect*
0 Rectangle with rounded corners*
0 $1 Rounding radius*
0 $2 $3 $4 $5 $6 $7 $8 $9 X,Y pos of 4 corners*
0 Add a 4 corners polygon primitive as box body*
4,1,4,$2,$3,$4,$5,$6,$7,$8,$9,$2,$3,0*
0 Add four circle primitives for the rounded corners*
1,1,$1+$1,$2,$3*
1,1,$1+$1,$4,$5*
1,1,$1+$1,$6,$7*
1,1,$1+$1,$8,$9*
0 Add four rect primitives between the rounded corners*
20,1,$1+$1,$2,$3,$4,$5,0*
20,1,$1+$1,$4,$5,$6,$7,0*
20,1,$1+$1,$6,$7,$8,$9,0*
20,1,$1+$1,$8,$9,$2,$3,0*%
%AMFreePoly0*
4,1,23,0.550000,-0.750000,0.000000,-0.750000,0.000000,-0.745722,-0.065263,-0.745722,-0.191342,-0.711940,-0.304381,-0.646677,-0.396677,-0.554381,-0.461940,-0.441342,-0.495722,-0.315263,-0.495722,-0.250000,-0.500000,-0.250000,-0.500000,0.250000,-0.495722,0.250000,-0.495722,0.315263,-0.461940,0.441342,-0.396677,0.554381,-0.304381,0.646677,-0.191342,0.711940,-0.065263,0.745722,0.000000,0.745722,
0.000000,0.750000,0.550000,0.750000,0.550000,-0.750000,0.550000,-0.750000,$1*%
%AMFreePoly1*
4,1,23,0.000000,0.745722,0.065263,0.745722,0.191342,0.711940,0.304381,0.646677,0.396677,0.554381,0.461940,0.441342,0.495722,0.315263,0.495722,0.250000,0.500000,0.250000,0.500000,-0.250000,0.495722,-0.250000,0.495722,-0.315263,0.461940,-0.441342,0.396677,-0.554381,0.304381,-0.646677,0.191342,-0.711940,0.065263,-0.745722,0.000000,-0.745722,0.000000,-0.750000,-0.550000,-0.750000,
-0.550000,0.750000,0.000000,0.750000,0.000000,0.745722,0.000000,0.745722,$1*%
%AMFreePoly2*
4,1,23,0.500000,-0.750000,0.000000,-0.750000,0.000000,-0.745722,-0.065263,-0.745722,-0.191342,-0.711940,-0.304381,-0.646677,-0.396677,-0.554381,-0.461940,-0.441342,-0.495722,-0.315263,-0.495722,-0.250000,-0.500000,-0.250000,-0.500000,0.250000,-0.495722,0.250000,-0.495722,0.315263,-0.461940,0.441342,-0.396677,0.554381,-0.304381,0.646677,-0.191342,0.711940,-0.065263,0.745722,0.000000,0.745722,
0.000000,0.750000,0.500000,0.750000,0.500000,-0.750000,0.500000,-0.750000,$1*%
%AMFreePoly3*
4,1,23,0.000000,0.745722,0.065263,0.745722,0.191342,0.711940,0.304381,0.646677,0.396677,0.554381,0.461940,0.441342,0.495722,0.315263,0.495722,0.250000,0.500000,0.250000,0.500000,-0.250000,0.495722,-0.250000,0.495722,-0.315263,0.461940,-0.441342,0.396677,-0.554381,0.304381,-0.646677,0.191342,-0.711940,0.065263,-0.745722,0.000000,-0.745722,0.000000,-0.750000,-0.500000,-0.750000,
-0.500000,0.750000,0.000000,0.750000,0.000000,0.745722,0.000000,0.745722,$1*%
G04 Aperture macros list end*
%ADD10R,1.700000X1.700000*%
%ADD11C,1.700000*%
%ADD12RoundRect,0.250000X-0.550000X-0.550000X0.550000X-0.550000X0.550000X0.550000X-0.550000X0.550000X0*%
%ADD13C,1.600000*%
%ADD14R,0.380000X1.870000*%
%ADD15FreePoly0,270.000000*%
%ADD16R,1.500000X1.000000*%
%ADD17FreePoly1,270.000000*%
%ADD18FreePoly2,0.000000*%
%ADD19FreePoly3,0.000000*%
%ADD20RoundRect,0.225000X-0.225000X-0.250000X0.225000X-0.250000X0.225000X0.250000X-0.225000X0.250000X0*%
G04 APERTURE END LIST*
%TO.C,JP2*%
G36*
X88172400Y-64904000D02*
G01*
X89672400Y-64904000D01*
X89672400Y-66404000D01*
X88172400Y-66404000D01*
X88172400Y-64904000D01*
G37*
%TO.C,JP1*%
G36*
X83674000Y-39631000D02*
G01*
X83974000Y-39631000D01*
X83974000Y-41131000D01*
X83674000Y-41131000D01*
X83674000Y-39631000D01*
G37*
%TD*%
D10*
%TO.C,J1*%
X80523000Y-72893000D03*
D11*
X80523000Y-70353000D03*
X83063000Y-72893000D03*
X83063000Y-70353000D03*
X85603000Y-72893000D03*
X85603000Y-70353000D03*
X88143000Y-72893000D03*
X88143000Y-70353000D03*
X90683000Y-72893000D03*
X90683000Y-70353000D03*
%TD*%
D12*
%TO.C,IC6*%
X77983000Y-39873000D03*
D13*
X77983000Y-42413000D03*
X77983000Y-44953000D03*
X77983000Y-47493000D03*
X77983000Y-50033000D03*
X77983000Y-52573000D03*
X77983000Y-55113000D03*
X77983000Y-57653000D03*
X77983000Y-60193000D03*
X77983000Y-62733000D03*
X77983000Y-65273000D03*
X77983000Y-67813000D03*
X77983000Y-70353000D03*
X77983000Y-72893000D03*
X93223000Y-72893000D03*
X93223000Y-70353000D03*
X93223000Y-67813000D03*
X93223000Y-65273000D03*
X93223000Y-62733000D03*
X93223000Y-60193000D03*
X93223000Y-57653000D03*
X93223000Y-55113000D03*
X93223000Y-52573000D03*
X93223000Y-50033000D03*
X93223000Y-47493000D03*
X93223000Y-44953000D03*
X93223000Y-42413000D03*
X93223000Y-39873000D03*
%TD*%
D10*
%TO.C,J2*%
X80523000Y-48763000D03*
%TD*%
D14*
%TO.C,U4*%
X85836000Y-60519400D03*
X85286000Y-60519400D03*
X84736000Y-60519400D03*
X84186000Y-60519400D03*
X83636000Y-60519400D03*
X83086000Y-60519400D03*
X82536000Y-60519400D03*
X82536000Y-47979400D03*
X83086000Y-47979400D03*
X83636000Y-47979400D03*
X84186000Y-47979400D03*
X84736000Y-47979400D03*
X85286000Y-47979400D03*
X85836000Y-47979400D03*
X86386000Y-47979400D03*
X86936000Y-47979400D03*
X87486000Y-47979400D03*
X88036000Y-47979400D03*
X88586000Y-47979400D03*
X89136000Y-47979400D03*
X89686000Y-47979400D03*
X89686000Y-60519400D03*
X89136000Y-60519400D03*
X88586000Y-60519400D03*
X88036000Y-60519400D03*
X87486000Y-60519400D03*
X86936000Y-60519400D03*
X86386000Y-60519400D03*
%TD*%
D15*
%TO.C,JP2*%
X88922400Y-64354000D03*
D16*
X88922400Y-65654000D03*
D17*
X88922400Y-66954000D03*
%TD*%
D18*
%TO.C,JP1*%
X83174000Y-40381000D03*
D19*
X84474000Y-40381000D03*
%TD*%
D20*
%TO.C,C4*%
X88259932Y-62523148D03*
X89809932Y-62523148D03*
%TD*%
M02*
