M48
; DRILL file KiCad 10.0.6 date 2026-09-04T01:49:05
; FORMAT={-:-/ absolute / metric / decimal}
; #@! TF.CreationDate,2026-09-04T01:49:05+01:00
; #@! TF.GenerationSoftware,Kicad,Pcbnew,10.0.6
; #@! TF.FileFunction,Plated,1,2,PTH
FMAT,2
METRIC
; #@! TA.AperFunction,Plated,PTH,ComponentDrill
T1C0.200
; #@! TA.AperFunction,Plated,PTH,ViaDrill
T2C0.300
; #@! TA.AperFunction,Plated,PTH,ViaDrill
T3C0.400
; #@! TA.AperFunction,Plated,PTH,ComponentDrill
T4C0.800
; #@! TA.AperFunction,Plated,PTH,ComponentDrill
T5C1.000
%
G90
G05
T1
X82.665Y-44.75
X83.665Y-44.75
T2
X78.162Y-58.979
X78.482Y-53.813
X78.776Y-58.589
X79.719Y-45.106
X79.928Y-51.859
X80.059Y-47.264
X80.073Y-67.782
X80.638Y-43.503
X80.895Y-45.446
X81.031Y-56.531
X81.076Y-58.382
X81.153Y-54.081
X81.219Y-55.829
X81.393Y-43.948
X81.403Y-42.103
X81.461Y-57.71
X81.612Y-45.564
X81.784Y-60.163
X81.793Y-72.766
X82.613Y-46.617
X83.723Y-46.617
X84.263Y-51.885
X84.403Y-53.788
X84.738Y-44.03
X84.738Y-45.599
X84.78Y-58.343
X85.847Y-43.45
X86.059Y-46.414
X86.262Y-40.938
X86.314Y-49.516
X86.405Y-52.416
X86.936Y-56.594
X87.254Y-52.373
X88.007Y-52.416
X88.471Y-44.103
X88.648Y-46.347
X89.447Y-68.374
X89.921Y-72.766
X90.09Y-56.327
X90.101Y-59.069
X90.245Y-66.581
X90.326Y-40.142
X90.329Y-40.869
X90.329Y-41.793
X90.329Y-42.72
X91.62Y-46.653
T3
X80.441Y-60.81
X80.441Y-63.254
X83.636Y-52.827
X84.541Y-54.813
X84.841Y-56.383
X85.836Y-57.399
X87.013Y-67.372
X87.343Y-64.717
X87.627Y-53.741
X87.819Y-46.099
X88.389Y-56.281
X89.215Y-54.947
X89.712Y-57.83
X89.923Y-43.623
X89.972Y-45.131
X90.03Y-50.338
X91.905Y-45.111
X92.325Y-64.1
T4
X77.983Y-39.873
X77.983Y-42.413
X77.983Y-44.953
X77.983Y-47.493
X77.983Y-50.033
X77.983Y-52.573
X77.983Y-55.113
X77.983Y-57.653
X77.983Y-60.193
X77.983Y-62.733
X77.983Y-65.273
X77.983Y-67.813
X77.983Y-70.353
X77.983Y-72.893
X93.223Y-39.873
X93.223Y-42.413
X93.223Y-44.953
X93.223Y-47.493
X93.223Y-50.033
X93.223Y-52.573
X93.223Y-55.113
X93.223Y-57.653
X93.223Y-60.193
X93.223Y-62.733
X93.223Y-65.273
X93.223Y-67.813
X93.223Y-70.353
X93.223Y-72.893
T5
X80.523Y-48.763
X80.523Y-69.083
X80.523Y-71.623
X83.063Y-69.083
X83.063Y-71.623
X85.603Y-69.083
X85.603Y-71.623
X88.143Y-69.083
X88.143Y-71.623
X90.683Y-69.083
X90.683Y-71.623
M30
