%TF.GenerationSoftware,KiCad,Pcbnew,10.0.6*%
%TF.CreationDate,2026-09-04T01:49:08+01:00*%
%TF.ProjectId,VideoULA,56696465-6f55-44c4-912e-6b696361645f,01*%
%TF.SameCoordinates,Original*%
%TF.FileFunction,Legend,Top*%
%TF.FilePolarity,Positive*%
%FSLAX46Y46*%
G04 Gerber Fmt 4.6, Leading zero omitted, Abs format (unit mm)*
G04 Created by KiCad (PCBNEW 10.0.6) date 2026-09-04 01:49:08*
%MOMM*%
%LPD*%
G01*
G04 APERTURE LIST*
%ADD10C,0.100000*%
%ADD11C,0.120000*%
G04 APERTURE END LIST*
D10*
X79989667Y-66702966D02*
X79923000Y-66669633D01*
X79923000Y-66669633D02*
X79823000Y-66669633D01*
X79823000Y-66669633D02*
X79723000Y-66702966D01*
X79723000Y-66702966D02*
X79656334Y-66769633D01*
X79656334Y-66769633D02*
X79623000Y-66836300D01*
X79623000Y-66836300D02*
X79589667Y-66969633D01*
X79589667Y-66969633D02*
X79589667Y-67069633D01*
X79589667Y-67069633D02*
X79623000Y-67202966D01*
X79623000Y-67202966D02*
X79656334Y-67269633D01*
X79656334Y-67269633D02*
X79723000Y-67336300D01*
X79723000Y-67336300D02*
X79823000Y-67369633D01*
X79823000Y-67369633D02*
X79889667Y-67369633D01*
X79889667Y-67369633D02*
X79989667Y-67336300D01*
X79989667Y-67336300D02*
X80023000Y-67302966D01*
X80023000Y-67302966D02*
X80023000Y-67069633D01*
X80023000Y-67069633D02*
X79889667Y-67069633D01*
X80323000Y-67369633D02*
X80323000Y-66669633D01*
X80323000Y-66669633D02*
X80723000Y-67369633D01*
X80723000Y-67369633D02*
X80723000Y-66669633D01*
X81056333Y-67369633D02*
X81056333Y-66669633D01*
X81056333Y-66669633D02*
X81223000Y-66669633D01*
X81223000Y-66669633D02*
X81323000Y-66702966D01*
X81323000Y-66702966D02*
X81389667Y-66769633D01*
X81389667Y-66769633D02*
X81423000Y-66836300D01*
X81423000Y-66836300D02*
X81456333Y-66969633D01*
X81456333Y-66969633D02*
X81456333Y-67069633D01*
X81456333Y-67069633D02*
X81423000Y-67202966D01*
X81423000Y-67202966D02*
X81389667Y-67269633D01*
X81389667Y-67269633D02*
X81323000Y-67336300D01*
X81323000Y-67336300D02*
X81223000Y-67369633D01*
X81223000Y-67369633D02*
X81056333Y-67369633D01*
X79623000Y-73273633D02*
X80023000Y-73273633D01*
X79823000Y-73973633D02*
X79823000Y-73273633D01*
X80656333Y-73906966D02*
X80623000Y-73940300D01*
X80623000Y-73940300D02*
X80523000Y-73973633D01*
X80523000Y-73973633D02*
X80456333Y-73973633D01*
X80456333Y-73973633D02*
X80356333Y-73940300D01*
X80356333Y-73940300D02*
X80289667Y-73873633D01*
X80289667Y-73873633D02*
X80256333Y-73806966D01*
X80256333Y-73806966D02*
X80223000Y-73673633D01*
X80223000Y-73673633D02*
X80223000Y-73573633D01*
X80223000Y-73573633D02*
X80256333Y-73440300D01*
X80256333Y-73440300D02*
X80289667Y-73373633D01*
X80289667Y-73373633D02*
X80356333Y-73306966D01*
X80356333Y-73306966D02*
X80456333Y-73273633D01*
X80456333Y-73273633D02*
X80523000Y-73273633D01*
X80523000Y-73273633D02*
X80623000Y-73306966D01*
X80623000Y-73306966D02*
X80656333Y-73340300D01*
X80956333Y-73973633D02*
X80956333Y-73273633D01*
X81356333Y-73973633D02*
X81056333Y-73573633D01*
X81356333Y-73273633D02*
X80956333Y-73673633D01*
X82196333Y-66669633D02*
X82629666Y-66669633D01*
X82629666Y-66669633D02*
X82396333Y-66936300D01*
X82396333Y-66936300D02*
X82496333Y-66936300D01*
X82496333Y-66936300D02*
X82562999Y-66969633D01*
X82562999Y-66969633D02*
X82596333Y-67002966D01*
X82596333Y-67002966D02*
X82629666Y-67069633D01*
X82629666Y-67069633D02*
X82629666Y-67236300D01*
X82629666Y-67236300D02*
X82596333Y-67302966D01*
X82596333Y-67302966D02*
X82562999Y-67336300D01*
X82562999Y-67336300D02*
X82496333Y-67369633D01*
X82496333Y-67369633D02*
X82296333Y-67369633D01*
X82296333Y-67369633D02*
X82229666Y-67336300D01*
X82229666Y-67336300D02*
X82196333Y-67302966D01*
X82829666Y-66669633D02*
X83063000Y-67369633D01*
X83063000Y-67369633D02*
X83296333Y-66669633D01*
X83463000Y-66669633D02*
X83896333Y-66669633D01*
X83896333Y-66669633D02*
X83663000Y-66936300D01*
X83663000Y-66936300D02*
X83763000Y-66936300D01*
X83763000Y-66936300D02*
X83829666Y-66969633D01*
X83829666Y-66969633D02*
X83863000Y-67002966D01*
X83863000Y-67002966D02*
X83896333Y-67069633D01*
X83896333Y-67069633D02*
X83896333Y-67236300D01*
X83896333Y-67236300D02*
X83863000Y-67302966D01*
X83863000Y-67302966D02*
X83829666Y-67336300D01*
X83829666Y-67336300D02*
X83763000Y-67369633D01*
X83763000Y-67369633D02*
X83563000Y-67369633D01*
X83563000Y-67369633D02*
X83496333Y-67336300D01*
X83496333Y-67336300D02*
X83463000Y-67302966D01*
X82146333Y-73273633D02*
X82546333Y-73273633D01*
X82346333Y-73973633D02*
X82346333Y-73273633D01*
X82779666Y-73973633D02*
X82779666Y-73273633D01*
X82779666Y-73273633D02*
X82946333Y-73273633D01*
X82946333Y-73273633D02*
X83046333Y-73306966D01*
X83046333Y-73306966D02*
X83113000Y-73373633D01*
X83113000Y-73373633D02*
X83146333Y-73440300D01*
X83146333Y-73440300D02*
X83179666Y-73573633D01*
X83179666Y-73573633D02*
X83179666Y-73673633D01*
X83179666Y-73673633D02*
X83146333Y-73806966D01*
X83146333Y-73806966D02*
X83113000Y-73873633D01*
X83113000Y-73873633D02*
X83046333Y-73940300D01*
X83046333Y-73940300D02*
X82946333Y-73973633D01*
X82946333Y-73973633D02*
X82779666Y-73973633D01*
X83613000Y-73273633D02*
X83746333Y-73273633D01*
X83746333Y-73273633D02*
X83813000Y-73306966D01*
X83813000Y-73306966D02*
X83879666Y-73373633D01*
X83879666Y-73373633D02*
X83913000Y-73506966D01*
X83913000Y-73506966D02*
X83913000Y-73740300D01*
X83913000Y-73740300D02*
X83879666Y-73873633D01*
X83879666Y-73873633D02*
X83813000Y-73940300D01*
X83813000Y-73940300D02*
X83746333Y-73973633D01*
X83746333Y-73973633D02*
X83613000Y-73973633D01*
X83613000Y-73973633D02*
X83546333Y-73940300D01*
X83546333Y-73940300D02*
X83479666Y-73873633D01*
X83479666Y-73873633D02*
X83446333Y-73740300D01*
X83446333Y-73740300D02*
X83446333Y-73506966D01*
X83446333Y-73506966D02*
X83479666Y-73373633D01*
X83479666Y-73373633D02*
X83546333Y-73306966D01*
X83546333Y-73306966D02*
X83613000Y-73273633D01*
X84686333Y-67369633D02*
X84686333Y-66669633D01*
X84686333Y-66669633D02*
X85086333Y-67369633D01*
X85086333Y-67369633D02*
X85086333Y-66669633D01*
X85919666Y-66636300D02*
X85319666Y-67536300D01*
X86552999Y-67302966D02*
X86519666Y-67336300D01*
X86519666Y-67336300D02*
X86419666Y-67369633D01*
X86419666Y-67369633D02*
X86352999Y-67369633D01*
X86352999Y-67369633D02*
X86252999Y-67336300D01*
X86252999Y-67336300D02*
X86186333Y-67269633D01*
X86186333Y-67269633D02*
X86152999Y-67202966D01*
X86152999Y-67202966D02*
X86119666Y-67069633D01*
X86119666Y-67069633D02*
X86119666Y-66969633D01*
X86119666Y-66969633D02*
X86152999Y-66836300D01*
X86152999Y-66836300D02*
X86186333Y-66769633D01*
X86186333Y-66769633D02*
X86252999Y-66702966D01*
X86252999Y-66702966D02*
X86352999Y-66669633D01*
X86352999Y-66669633D02*
X86419666Y-66669633D01*
X86419666Y-66669633D02*
X86519666Y-66702966D01*
X86519666Y-66702966D02*
X86552999Y-66736300D01*
X84669666Y-73273633D02*
X85069666Y-73273633D01*
X84869666Y-73973633D02*
X84869666Y-73273633D01*
X85302999Y-73973633D02*
X85302999Y-73273633D01*
X85302999Y-73273633D02*
X85536333Y-73773633D01*
X85536333Y-73773633D02*
X85769666Y-73273633D01*
X85769666Y-73273633D02*
X85769666Y-73973633D01*
X86069666Y-73940300D02*
X86169666Y-73973633D01*
X86169666Y-73973633D02*
X86336333Y-73973633D01*
X86336333Y-73973633D02*
X86402999Y-73940300D01*
X86402999Y-73940300D02*
X86436333Y-73906966D01*
X86436333Y-73906966D02*
X86469666Y-73840300D01*
X86469666Y-73840300D02*
X86469666Y-73773633D01*
X86469666Y-73773633D02*
X86436333Y-73706966D01*
X86436333Y-73706966D02*
X86402999Y-73673633D01*
X86402999Y-73673633D02*
X86336333Y-73640300D01*
X86336333Y-73640300D02*
X86202999Y-73606966D01*
X86202999Y-73606966D02*
X86136333Y-73573633D01*
X86136333Y-73573633D02*
X86102999Y-73540300D01*
X86102999Y-73540300D02*
X86069666Y-73473633D01*
X86069666Y-73473633D02*
X86069666Y-73406966D01*
X86069666Y-73406966D02*
X86102999Y-73340300D01*
X86102999Y-73340300D02*
X86136333Y-73306966D01*
X86136333Y-73306966D02*
X86202999Y-73273633D01*
X86202999Y-73273633D02*
X86369666Y-73273633D01*
X86369666Y-73273633D02*
X86469666Y-73306966D01*
X87226333Y-67369633D02*
X87226333Y-66669633D01*
X87226333Y-66669633D02*
X87626333Y-67369633D01*
X87626333Y-67369633D02*
X87626333Y-66669633D01*
X88459666Y-66636300D02*
X87859666Y-67536300D01*
X89092999Y-67302966D02*
X89059666Y-67336300D01*
X89059666Y-67336300D02*
X88959666Y-67369633D01*
X88959666Y-67369633D02*
X88892999Y-67369633D01*
X88892999Y-67369633D02*
X88792999Y-67336300D01*
X88792999Y-67336300D02*
X88726333Y-67269633D01*
X88726333Y-67269633D02*
X88692999Y-67202966D01*
X88692999Y-67202966D02*
X88659666Y-67069633D01*
X88659666Y-67069633D02*
X88659666Y-66969633D01*
X88659666Y-66969633D02*
X88692999Y-66836300D01*
X88692999Y-66836300D02*
X88726333Y-66769633D01*
X88726333Y-66769633D02*
X88792999Y-66702966D01*
X88792999Y-66702966D02*
X88892999Y-66669633D01*
X88892999Y-66669633D02*
X88959666Y-66669633D01*
X88959666Y-66669633D02*
X89059666Y-66702966D01*
X89059666Y-66702966D02*
X89092999Y-66736300D01*
X87226333Y-73973633D02*
X87226333Y-73273633D01*
X87226333Y-73273633D02*
X87626333Y-73973633D01*
X87626333Y-73973633D02*
X87626333Y-73273633D01*
X88459666Y-73240300D02*
X87859666Y-74140300D01*
X89092999Y-73906966D02*
X89059666Y-73940300D01*
X89059666Y-73940300D02*
X88959666Y-73973633D01*
X88959666Y-73973633D02*
X88892999Y-73973633D01*
X88892999Y-73973633D02*
X88792999Y-73940300D01*
X88792999Y-73940300D02*
X88726333Y-73873633D01*
X88726333Y-73873633D02*
X88692999Y-73806966D01*
X88692999Y-73806966D02*
X88659666Y-73673633D01*
X88659666Y-73673633D02*
X88659666Y-73573633D01*
X88659666Y-73573633D02*
X88692999Y-73440300D01*
X88692999Y-73440300D02*
X88726333Y-73373633D01*
X88726333Y-73373633D02*
X88792999Y-73306966D01*
X88792999Y-73306966D02*
X88892999Y-73273633D01*
X88892999Y-73273633D02*
X88959666Y-73273633D01*
X88959666Y-73273633D02*
X89059666Y-73306966D01*
X89059666Y-73306966D02*
X89092999Y-73340300D01*
X86937533Y-65934566D02*
X87470867Y-65934566D01*
X88537533Y-65501233D02*
X88537533Y-66001233D01*
X88537533Y-66001233D02*
X88504200Y-66101233D01*
X88504200Y-66101233D02*
X88437533Y-66167900D01*
X88437533Y-66167900D02*
X88337533Y-66201233D01*
X88337533Y-66201233D02*
X88270867Y-66201233D01*
X88770866Y-65501233D02*
X89170866Y-65501233D01*
X88970866Y-66201233D02*
X88970866Y-65501233D01*
X89370866Y-66001233D02*
X89704199Y-66001233D01*
X89304199Y-66201233D02*
X89537533Y-65501233D01*
X89537533Y-65501233D02*
X89770866Y-66201233D01*
X90370866Y-65534566D02*
X90304199Y-65501233D01*
X90304199Y-65501233D02*
X90204199Y-65501233D01*
X90204199Y-65501233D02*
X90104199Y-65534566D01*
X90104199Y-65534566D02*
X90037533Y-65601233D01*
X90037533Y-65601233D02*
X90004199Y-65667900D01*
X90004199Y-65667900D02*
X89970866Y-65801233D01*
X89970866Y-65801233D02*
X89970866Y-65901233D01*
X89970866Y-65901233D02*
X90004199Y-66034566D01*
X90004199Y-66034566D02*
X90037533Y-66101233D01*
X90037533Y-66101233D02*
X90104199Y-66167900D01*
X90104199Y-66167900D02*
X90204199Y-66201233D01*
X90204199Y-66201233D02*
X90270866Y-66201233D01*
X90270866Y-66201233D02*
X90370866Y-66167900D01*
X90370866Y-66167900D02*
X90404199Y-66134566D01*
X90404199Y-66134566D02*
X90404199Y-65901233D01*
X90404199Y-65901233D02*
X90270866Y-65901233D01*
X91237532Y-65934566D02*
X91770866Y-65934566D01*
X90149667Y-66702966D02*
X90083000Y-66669633D01*
X90083000Y-66669633D02*
X89983000Y-66669633D01*
X89983000Y-66669633D02*
X89883000Y-66702966D01*
X89883000Y-66702966D02*
X89816334Y-66769633D01*
X89816334Y-66769633D02*
X89783000Y-66836300D01*
X89783000Y-66836300D02*
X89749667Y-66969633D01*
X89749667Y-66969633D02*
X89749667Y-67069633D01*
X89749667Y-67069633D02*
X89783000Y-67202966D01*
X89783000Y-67202966D02*
X89816334Y-67269633D01*
X89816334Y-67269633D02*
X89883000Y-67336300D01*
X89883000Y-67336300D02*
X89983000Y-67369633D01*
X89983000Y-67369633D02*
X90049667Y-67369633D01*
X90049667Y-67369633D02*
X90149667Y-67336300D01*
X90149667Y-67336300D02*
X90183000Y-67302966D01*
X90183000Y-67302966D02*
X90183000Y-67069633D01*
X90183000Y-67069633D02*
X90049667Y-67069633D01*
X90483000Y-67369633D02*
X90483000Y-66669633D01*
X90483000Y-66669633D02*
X90883000Y-67369633D01*
X90883000Y-67369633D02*
X90883000Y-66669633D01*
X91216333Y-67369633D02*
X91216333Y-66669633D01*
X91216333Y-66669633D02*
X91383000Y-66669633D01*
X91383000Y-66669633D02*
X91483000Y-66702966D01*
X91483000Y-66702966D02*
X91549667Y-66769633D01*
X91549667Y-66769633D02*
X91583000Y-66836300D01*
X91583000Y-66836300D02*
X91616333Y-66969633D01*
X91616333Y-66969633D02*
X91616333Y-67069633D01*
X91616333Y-67069633D02*
X91583000Y-67202966D01*
X91583000Y-67202966D02*
X91549667Y-67269633D01*
X91549667Y-67269633D02*
X91483000Y-67336300D01*
X91483000Y-67336300D02*
X91383000Y-67369633D01*
X91383000Y-67369633D02*
X91216333Y-67369633D01*
X89966333Y-73273633D02*
X90366333Y-73273633D01*
X90166333Y-73973633D02*
X90166333Y-73273633D01*
X90599666Y-73973633D02*
X90599666Y-73273633D01*
X90599666Y-73273633D02*
X90766333Y-73273633D01*
X90766333Y-73273633D02*
X90866333Y-73306966D01*
X90866333Y-73306966D02*
X90933000Y-73373633D01*
X90933000Y-73373633D02*
X90966333Y-73440300D01*
X90966333Y-73440300D02*
X90999666Y-73573633D01*
X90999666Y-73573633D02*
X90999666Y-73673633D01*
X90999666Y-73673633D02*
X90966333Y-73806966D01*
X90966333Y-73806966D02*
X90933000Y-73873633D01*
X90933000Y-73873633D02*
X90866333Y-73940300D01*
X90866333Y-73940300D02*
X90766333Y-73973633D01*
X90766333Y-73973633D02*
X90599666Y-73973633D01*
X91299666Y-73973633D02*
X91299666Y-73273633D01*
X87795733Y-42991766D02*
X87762400Y-43025100D01*
X87762400Y-43025100D02*
X87662400Y-43058433D01*
X87662400Y-43058433D02*
X87595733Y-43058433D01*
X87595733Y-43058433D02*
X87495733Y-43025100D01*
X87495733Y-43025100D02*
X87429067Y-42958433D01*
X87429067Y-42958433D02*
X87395733Y-42891766D01*
X87395733Y-42891766D02*
X87362400Y-42758433D01*
X87362400Y-42758433D02*
X87362400Y-42658433D01*
X87362400Y-42658433D02*
X87395733Y-42525100D01*
X87395733Y-42525100D02*
X87429067Y-42458433D01*
X87429067Y-42458433D02*
X87495733Y-42391766D01*
X87495733Y-42391766D02*
X87595733Y-42358433D01*
X87595733Y-42358433D02*
X87662400Y-42358433D01*
X87662400Y-42358433D02*
X87762400Y-42391766D01*
X87762400Y-42391766D02*
X87795733Y-42425100D01*
X88129067Y-43058433D02*
X88262400Y-43058433D01*
X88262400Y-43058433D02*
X88329067Y-43025100D01*
X88329067Y-43025100D02*
X88362400Y-42991766D01*
X88362400Y-42991766D02*
X88429067Y-42891766D01*
X88429067Y-42891766D02*
X88462400Y-42758433D01*
X88462400Y-42758433D02*
X88462400Y-42491766D01*
X88462400Y-42491766D02*
X88429067Y-42425100D01*
X88429067Y-42425100D02*
X88395733Y-42391766D01*
X88395733Y-42391766D02*
X88329067Y-42358433D01*
X88329067Y-42358433D02*
X88195733Y-42358433D01*
X88195733Y-42358433D02*
X88129067Y-42391766D01*
X88129067Y-42391766D02*
X88095733Y-42425100D01*
X88095733Y-42425100D02*
X88062400Y-42491766D01*
X88062400Y-42491766D02*
X88062400Y-42658433D01*
X88062400Y-42658433D02*
X88095733Y-42725100D01*
X88095733Y-42725100D02*
X88129067Y-42758433D01*
X88129067Y-42758433D02*
X88195733Y-42791766D01*
X88195733Y-42791766D02*
X88329067Y-42791766D01*
X88329067Y-42791766D02*
X88395733Y-42758433D01*
X88395733Y-42758433D02*
X88429067Y-42725100D01*
X88429067Y-42725100D02*
X88462400Y-42658433D01*
X84248410Y-47643366D02*
X84215077Y-47676700D01*
X84215077Y-47676700D02*
X84115077Y-47710033D01*
X84115077Y-47710033D02*
X84048410Y-47710033D01*
X84048410Y-47710033D02*
X83948410Y-47676700D01*
X83948410Y-47676700D02*
X83881744Y-47610033D01*
X83881744Y-47610033D02*
X83848410Y-47543366D01*
X83848410Y-47543366D02*
X83815077Y-47410033D01*
X83815077Y-47410033D02*
X83815077Y-47310033D01*
X83815077Y-47310033D02*
X83848410Y-47176700D01*
X83848410Y-47176700D02*
X83881744Y-47110033D01*
X83881744Y-47110033D02*
X83948410Y-47043366D01*
X83948410Y-47043366D02*
X84048410Y-47010033D01*
X84048410Y-47010033D02*
X84115077Y-47010033D01*
X84115077Y-47010033D02*
X84215077Y-47043366D01*
X84215077Y-47043366D02*
X84248410Y-47076700D01*
X84881744Y-47010033D02*
X84548410Y-47010033D01*
X84548410Y-47010033D02*
X84515077Y-47343366D01*
X84515077Y-47343366D02*
X84548410Y-47310033D01*
X84548410Y-47310033D02*
X84615077Y-47276700D01*
X84615077Y-47276700D02*
X84781744Y-47276700D01*
X84781744Y-47276700D02*
X84848410Y-47310033D01*
X84848410Y-47310033D02*
X84881744Y-47343366D01*
X84881744Y-47343366D02*
X84915077Y-47410033D01*
X84915077Y-47410033D02*
X84915077Y-47576700D01*
X84915077Y-47576700D02*
X84881744Y-47643366D01*
X84881744Y-47643366D02*
X84848410Y-47676700D01*
X84848410Y-47676700D02*
X84781744Y-47710033D01*
X84781744Y-47710033D02*
X84615077Y-47710033D01*
X84615077Y-47710033D02*
X84548410Y-47676700D01*
X84548410Y-47676700D02*
X84515077Y-47643366D01*
X84495733Y-42991766D02*
X84462400Y-43025100D01*
X84462400Y-43025100D02*
X84362400Y-43058433D01*
X84362400Y-43058433D02*
X84295733Y-43058433D01*
X84295733Y-43058433D02*
X84195733Y-43025100D01*
X84195733Y-43025100D02*
X84129067Y-42958433D01*
X84129067Y-42958433D02*
X84095733Y-42891766D01*
X84095733Y-42891766D02*
X84062400Y-42758433D01*
X84062400Y-42758433D02*
X84062400Y-42658433D01*
X84062400Y-42658433D02*
X84095733Y-42525100D01*
X84095733Y-42525100D02*
X84129067Y-42458433D01*
X84129067Y-42458433D02*
X84195733Y-42391766D01*
X84195733Y-42391766D02*
X84295733Y-42358433D01*
X84295733Y-42358433D02*
X84362400Y-42358433D01*
X84362400Y-42358433D02*
X84462400Y-42391766D01*
X84462400Y-42391766D02*
X84495733Y-42425100D01*
X84729067Y-42358433D02*
X85195733Y-42358433D01*
X85195733Y-42358433D02*
X84895733Y-43058433D01*
X82962432Y-63634233D02*
X82729099Y-63300900D01*
X82562432Y-63634233D02*
X82562432Y-62934233D01*
X82562432Y-62934233D02*
X82829099Y-62934233D01*
X82829099Y-62934233D02*
X82895766Y-62967566D01*
X82895766Y-62967566D02*
X82929099Y-63000900D01*
X82929099Y-63000900D02*
X82962432Y-63067566D01*
X82962432Y-63067566D02*
X82962432Y-63167566D01*
X82962432Y-63167566D02*
X82929099Y-63234233D01*
X82929099Y-63234233D02*
X82895766Y-63267566D01*
X82895766Y-63267566D02*
X82829099Y-63300900D01*
X82829099Y-63300900D02*
X82562432Y-63300900D01*
X83262432Y-63634233D02*
X83262432Y-62934233D01*
X83262432Y-62934233D02*
X83662432Y-63634233D01*
X83662432Y-63634233D02*
X83662432Y-62934233D01*
X83962432Y-63000900D02*
X83995765Y-62967566D01*
X83995765Y-62967566D02*
X84062432Y-62934233D01*
X84062432Y-62934233D02*
X84229099Y-62934233D01*
X84229099Y-62934233D02*
X84295765Y-62967566D01*
X84295765Y-62967566D02*
X84329099Y-63000900D01*
X84329099Y-63000900D02*
X84362432Y-63067566D01*
X84362432Y-63067566D02*
X84362432Y-63134233D01*
X84362432Y-63134233D02*
X84329099Y-63234233D01*
X84329099Y-63234233D02*
X83929099Y-63634233D01*
X83929099Y-63634233D02*
X84362432Y-63634233D01*
X87822133Y-46373366D02*
X87788800Y-46406700D01*
X87788800Y-46406700D02*
X87688800Y-46440033D01*
X87688800Y-46440033D02*
X87622133Y-46440033D01*
X87622133Y-46440033D02*
X87522133Y-46406700D01*
X87522133Y-46406700D02*
X87455467Y-46340033D01*
X87455467Y-46340033D02*
X87422133Y-46273366D01*
X87422133Y-46273366D02*
X87388800Y-46140033D01*
X87388800Y-46140033D02*
X87388800Y-46040033D01*
X87388800Y-46040033D02*
X87422133Y-45906700D01*
X87422133Y-45906700D02*
X87455467Y-45840033D01*
X87455467Y-45840033D02*
X87522133Y-45773366D01*
X87522133Y-45773366D02*
X87622133Y-45740033D01*
X87622133Y-45740033D02*
X87688800Y-45740033D01*
X87688800Y-45740033D02*
X87788800Y-45773366D01*
X87788800Y-45773366D02*
X87822133Y-45806700D01*
X88222133Y-46040033D02*
X88155467Y-46006700D01*
X88155467Y-46006700D02*
X88122133Y-45973366D01*
X88122133Y-45973366D02*
X88088800Y-45906700D01*
X88088800Y-45906700D02*
X88088800Y-45873366D01*
X88088800Y-45873366D02*
X88122133Y-45806700D01*
X88122133Y-45806700D02*
X88155467Y-45773366D01*
X88155467Y-45773366D02*
X88222133Y-45740033D01*
X88222133Y-45740033D02*
X88355467Y-45740033D01*
X88355467Y-45740033D02*
X88422133Y-45773366D01*
X88422133Y-45773366D02*
X88455467Y-45806700D01*
X88455467Y-45806700D02*
X88488800Y-45873366D01*
X88488800Y-45873366D02*
X88488800Y-45906700D01*
X88488800Y-45906700D02*
X88455467Y-45973366D01*
X88455467Y-45973366D02*
X88422133Y-46006700D01*
X88422133Y-46006700D02*
X88355467Y-46040033D01*
X88355467Y-46040033D02*
X88222133Y-46040033D01*
X88222133Y-46040033D02*
X88155467Y-46073366D01*
X88155467Y-46073366D02*
X88122133Y-46106700D01*
X88122133Y-46106700D02*
X88088800Y-46173366D01*
X88088800Y-46173366D02*
X88088800Y-46306700D01*
X88088800Y-46306700D02*
X88122133Y-46373366D01*
X88122133Y-46373366D02*
X88155467Y-46406700D01*
X88155467Y-46406700D02*
X88222133Y-46440033D01*
X88222133Y-46440033D02*
X88355467Y-46440033D01*
X88355467Y-46440033D02*
X88422133Y-46406700D01*
X88422133Y-46406700D02*
X88455467Y-46373366D01*
X88455467Y-46373366D02*
X88488800Y-46306700D01*
X88488800Y-46306700D02*
X88488800Y-46173366D01*
X88488800Y-46173366D02*
X88455467Y-46106700D01*
X88455467Y-46106700D02*
X88422133Y-46073366D01*
X88422133Y-46073366D02*
X88355467Y-46040033D01*
X81361266Y-46603633D02*
X81361266Y-47170300D01*
X81361266Y-47170300D02*
X81394600Y-47236966D01*
X81394600Y-47236966D02*
X81427933Y-47270300D01*
X81427933Y-47270300D02*
X81494600Y-47303633D01*
X81494600Y-47303633D02*
X81627933Y-47303633D01*
X81627933Y-47303633D02*
X81694600Y-47270300D01*
X81694600Y-47270300D02*
X81727933Y-47236966D01*
X81727933Y-47236966D02*
X81761266Y-47170300D01*
X81761266Y-47170300D02*
X81761266Y-46603633D01*
X82027933Y-46603633D02*
X82461266Y-46603633D01*
X82461266Y-46603633D02*
X82227933Y-46870300D01*
X82227933Y-46870300D02*
X82327933Y-46870300D01*
X82327933Y-46870300D02*
X82394599Y-46903633D01*
X82394599Y-46903633D02*
X82427933Y-46936966D01*
X82427933Y-46936966D02*
X82461266Y-47003633D01*
X82461266Y-47003633D02*
X82461266Y-47170300D01*
X82461266Y-47170300D02*
X82427933Y-47236966D01*
X82427933Y-47236966D02*
X82394599Y-47270300D01*
X82394599Y-47270300D02*
X82327933Y-47303633D01*
X82327933Y-47303633D02*
X82127933Y-47303633D01*
X82127933Y-47303633D02*
X82061266Y-47270300D01*
X82061266Y-47270300D02*
X82027933Y-47236966D01*
X86116699Y-63567566D02*
X86083366Y-63600900D01*
X86083366Y-63600900D02*
X85983366Y-63634233D01*
X85983366Y-63634233D02*
X85916699Y-63634233D01*
X85916699Y-63634233D02*
X85816699Y-63600900D01*
X85816699Y-63600900D02*
X85750033Y-63534233D01*
X85750033Y-63534233D02*
X85716699Y-63467566D01*
X85716699Y-63467566D02*
X85683366Y-63334233D01*
X85683366Y-63334233D02*
X85683366Y-63234233D01*
X85683366Y-63234233D02*
X85716699Y-63100900D01*
X85716699Y-63100900D02*
X85750033Y-63034233D01*
X85750033Y-63034233D02*
X85816699Y-62967566D01*
X85816699Y-62967566D02*
X85916699Y-62934233D01*
X85916699Y-62934233D02*
X85983366Y-62934233D01*
X85983366Y-62934233D02*
X86083366Y-62967566D01*
X86083366Y-62967566D02*
X86116699Y-63000900D01*
X86783366Y-63634233D02*
X86383366Y-63634233D01*
X86583366Y-63634233D02*
X86583366Y-62934233D01*
X86583366Y-62934233D02*
X86516699Y-63034233D01*
X86516699Y-63034233D02*
X86450033Y-63100900D01*
X86450033Y-63100900D02*
X86383366Y-63134233D01*
X79422933Y-42844433D02*
X79889599Y-43544433D01*
X79889599Y-42844433D02*
X79422933Y-43544433D01*
X80522933Y-43544433D02*
X80122933Y-43544433D01*
X80322933Y-43544433D02*
X80322933Y-42844433D01*
X80322933Y-42844433D02*
X80256266Y-42944433D01*
X80256266Y-42944433D02*
X80189600Y-43011100D01*
X80189600Y-43011100D02*
X80122933Y-43044433D01*
X89872398Y-39381981D02*
X89639065Y-39048648D01*
X89472398Y-39381981D02*
X89472398Y-38681981D01*
X89472398Y-38681981D02*
X89739065Y-38681981D01*
X89739065Y-38681981D02*
X89805732Y-38715314D01*
X89805732Y-38715314D02*
X89839065Y-38748648D01*
X89839065Y-38748648D02*
X89872398Y-38815314D01*
X89872398Y-38815314D02*
X89872398Y-38915314D01*
X89872398Y-38915314D02*
X89839065Y-38981981D01*
X89839065Y-38981981D02*
X89805732Y-39015314D01*
X89805732Y-39015314D02*
X89739065Y-39048648D01*
X89739065Y-39048648D02*
X89472398Y-39048648D01*
X90172398Y-39381981D02*
X90172398Y-38681981D01*
X90172398Y-38681981D02*
X90572398Y-39381981D01*
X90572398Y-39381981D02*
X90572398Y-38681981D01*
X91272398Y-39381981D02*
X90872398Y-39381981D01*
X91072398Y-39381981D02*
X91072398Y-38681981D01*
X91072398Y-38681981D02*
X91005731Y-38781981D01*
X91005731Y-38781981D02*
X90939065Y-38848648D01*
X90939065Y-38848648D02*
X90872398Y-38881981D01*
X86145733Y-43058433D02*
X85912400Y-42725100D01*
X85745733Y-43058433D02*
X85745733Y-42358433D01*
X85745733Y-42358433D02*
X86012400Y-42358433D01*
X86012400Y-42358433D02*
X86079067Y-42391766D01*
X86079067Y-42391766D02*
X86112400Y-42425100D01*
X86112400Y-42425100D02*
X86145733Y-42491766D01*
X86145733Y-42491766D02*
X86145733Y-42591766D01*
X86145733Y-42591766D02*
X86112400Y-42658433D01*
X86112400Y-42658433D02*
X86079067Y-42691766D01*
X86079067Y-42691766D02*
X86012400Y-42725100D01*
X86012400Y-42725100D02*
X85745733Y-42725100D01*
X86412400Y-42425100D02*
X86445733Y-42391766D01*
X86445733Y-42391766D02*
X86512400Y-42358433D01*
X86512400Y-42358433D02*
X86679067Y-42358433D01*
X86679067Y-42358433D02*
X86745733Y-42391766D01*
X86745733Y-42391766D02*
X86779067Y-42425100D01*
X86779067Y-42425100D02*
X86812400Y-42491766D01*
X86812400Y-42491766D02*
X86812400Y-42558433D01*
X86812400Y-42558433D02*
X86779067Y-42658433D01*
X86779067Y-42658433D02*
X86379067Y-43058433D01*
X86379067Y-43058433D02*
X86812400Y-43058433D01*
X79941133Y-47224033D02*
X79707800Y-46890700D01*
X79541133Y-47224033D02*
X79541133Y-46524033D01*
X79541133Y-46524033D02*
X79807800Y-46524033D01*
X79807800Y-46524033D02*
X79874467Y-46557366D01*
X79874467Y-46557366D02*
X79907800Y-46590700D01*
X79907800Y-46590700D02*
X79941133Y-46657366D01*
X79941133Y-46657366D02*
X79941133Y-46757366D01*
X79941133Y-46757366D02*
X79907800Y-46824033D01*
X79907800Y-46824033D02*
X79874467Y-46857366D01*
X79874467Y-46857366D02*
X79807800Y-46890700D01*
X79807800Y-46890700D02*
X79541133Y-46890700D01*
X80607800Y-47224033D02*
X80207800Y-47224033D01*
X80407800Y-47224033D02*
X80407800Y-46524033D01*
X80407800Y-46524033D02*
X80341133Y-46624033D01*
X80341133Y-46624033D02*
X80274467Y-46690700D01*
X80274467Y-46690700D02*
X80207800Y-46724033D01*
X80190852Y-63567566D02*
X80157519Y-63600900D01*
X80157519Y-63600900D02*
X80057519Y-63634233D01*
X80057519Y-63634233D02*
X79990852Y-63634233D01*
X79990852Y-63634233D02*
X79890852Y-63600900D01*
X79890852Y-63600900D02*
X79824186Y-63534233D01*
X79824186Y-63534233D02*
X79790852Y-63467566D01*
X79790852Y-63467566D02*
X79757519Y-63334233D01*
X79757519Y-63334233D02*
X79757519Y-63234233D01*
X79757519Y-63234233D02*
X79790852Y-63100900D01*
X79790852Y-63100900D02*
X79824186Y-63034233D01*
X79824186Y-63034233D02*
X79890852Y-62967566D01*
X79890852Y-62967566D02*
X79990852Y-62934233D01*
X79990852Y-62934233D02*
X80057519Y-62934233D01*
X80057519Y-62934233D02*
X80157519Y-62967566D01*
X80157519Y-62967566D02*
X80190852Y-63000900D01*
X80857519Y-63634233D02*
X80457519Y-63634233D01*
X80657519Y-63634233D02*
X80657519Y-62934233D01*
X80657519Y-62934233D02*
X80590852Y-63034233D01*
X80590852Y-63034233D02*
X80524186Y-63100900D01*
X80524186Y-63100900D02*
X80457519Y-63134233D01*
X81524186Y-63634233D02*
X81124186Y-63634233D01*
X81324186Y-63634233D02*
X81324186Y-62934233D01*
X81324186Y-62934233D02*
X81257519Y-63034233D01*
X81257519Y-63034233D02*
X81190853Y-63100900D01*
X81190853Y-63100900D02*
X81124186Y-63134233D01*
X91212055Y-47643366D02*
X91178722Y-47676700D01*
X91178722Y-47676700D02*
X91078722Y-47710033D01*
X91078722Y-47710033D02*
X91012055Y-47710033D01*
X91012055Y-47710033D02*
X90912055Y-47676700D01*
X90912055Y-47676700D02*
X90845389Y-47610033D01*
X90845389Y-47610033D02*
X90812055Y-47543366D01*
X90812055Y-47543366D02*
X90778722Y-47410033D01*
X90778722Y-47410033D02*
X90778722Y-47310033D01*
X90778722Y-47310033D02*
X90812055Y-47176700D01*
X90812055Y-47176700D02*
X90845389Y-47110033D01*
X90845389Y-47110033D02*
X90912055Y-47043366D01*
X90912055Y-47043366D02*
X91012055Y-47010033D01*
X91012055Y-47010033D02*
X91078722Y-47010033D01*
X91078722Y-47010033D02*
X91178722Y-47043366D01*
X91178722Y-47043366D02*
X91212055Y-47076700D01*
X91812055Y-47010033D02*
X91678722Y-47010033D01*
X91678722Y-47010033D02*
X91612055Y-47043366D01*
X91612055Y-47043366D02*
X91578722Y-47076700D01*
X91578722Y-47076700D02*
X91512055Y-47176700D01*
X91512055Y-47176700D02*
X91478722Y-47310033D01*
X91478722Y-47310033D02*
X91478722Y-47576700D01*
X91478722Y-47576700D02*
X91512055Y-47643366D01*
X91512055Y-47643366D02*
X91545389Y-47676700D01*
X91545389Y-47676700D02*
X91612055Y-47710033D01*
X91612055Y-47710033D02*
X91745389Y-47710033D01*
X91745389Y-47710033D02*
X91812055Y-47676700D01*
X91812055Y-47676700D02*
X91845389Y-47643366D01*
X91845389Y-47643366D02*
X91878722Y-47576700D01*
X91878722Y-47576700D02*
X91878722Y-47410033D01*
X91878722Y-47410033D02*
X91845389Y-47343366D01*
X91845389Y-47343366D02*
X91812055Y-47310033D01*
X91812055Y-47310033D02*
X91745389Y-47276700D01*
X91745389Y-47276700D02*
X91612055Y-47276700D01*
X91612055Y-47276700D02*
X91545389Y-47310033D01*
X91545389Y-47310033D02*
X91512055Y-47343366D01*
X91512055Y-47343366D02*
X91478722Y-47410033D01*
X89803333Y-64813766D02*
X89770000Y-64847100D01*
X89770000Y-64847100D02*
X89670000Y-64880433D01*
X89670000Y-64880433D02*
X89603333Y-64880433D01*
X89603333Y-64880433D02*
X89503333Y-64847100D01*
X89503333Y-64847100D02*
X89436667Y-64780433D01*
X89436667Y-64780433D02*
X89403333Y-64713766D01*
X89403333Y-64713766D02*
X89370000Y-64580433D01*
X89370000Y-64580433D02*
X89370000Y-64480433D01*
X89370000Y-64480433D02*
X89403333Y-64347100D01*
X89403333Y-64347100D02*
X89436667Y-64280433D01*
X89436667Y-64280433D02*
X89503333Y-64213766D01*
X89503333Y-64213766D02*
X89603333Y-64180433D01*
X89603333Y-64180433D02*
X89670000Y-64180433D01*
X89670000Y-64180433D02*
X89770000Y-64213766D01*
X89770000Y-64213766D02*
X89803333Y-64247100D01*
X90070000Y-64247100D02*
X90103333Y-64213766D01*
X90103333Y-64213766D02*
X90170000Y-64180433D01*
X90170000Y-64180433D02*
X90336667Y-64180433D01*
X90336667Y-64180433D02*
X90403333Y-64213766D01*
X90403333Y-64213766D02*
X90436667Y-64247100D01*
X90436667Y-64247100D02*
X90470000Y-64313766D01*
X90470000Y-64313766D02*
X90470000Y-64380433D01*
X90470000Y-64380433D02*
X90436667Y-64480433D01*
X90436667Y-64480433D02*
X90036667Y-64880433D01*
X90036667Y-64880433D02*
X90470000Y-64880433D01*
X87600666Y-43504833D02*
X87600666Y-44071500D01*
X87600666Y-44071500D02*
X87634000Y-44138166D01*
X87634000Y-44138166D02*
X87667333Y-44171500D01*
X87667333Y-44171500D02*
X87734000Y-44204833D01*
X87734000Y-44204833D02*
X87867333Y-44204833D01*
X87867333Y-44204833D02*
X87934000Y-44171500D01*
X87934000Y-44171500D02*
X87967333Y-44138166D01*
X87967333Y-44138166D02*
X88000666Y-44071500D01*
X88000666Y-44071500D02*
X88000666Y-43504833D01*
X88300666Y-43571500D02*
X88333999Y-43538166D01*
X88333999Y-43538166D02*
X88400666Y-43504833D01*
X88400666Y-43504833D02*
X88567333Y-43504833D01*
X88567333Y-43504833D02*
X88633999Y-43538166D01*
X88633999Y-43538166D02*
X88667333Y-43571500D01*
X88667333Y-43571500D02*
X88700666Y-43638166D01*
X88700666Y-43638166D02*
X88700666Y-43704833D01*
X88700666Y-43704833D02*
X88667333Y-43804833D01*
X88667333Y-43804833D02*
X88267333Y-44204833D01*
X88267333Y-44204833D02*
X88700666Y-44204833D01*
X91212055Y-49167366D02*
X91178722Y-49200700D01*
X91178722Y-49200700D02*
X91078722Y-49234033D01*
X91078722Y-49234033D02*
X91012055Y-49234033D01*
X91012055Y-49234033D02*
X90912055Y-49200700D01*
X90912055Y-49200700D02*
X90845389Y-49134033D01*
X90845389Y-49134033D02*
X90812055Y-49067366D01*
X90812055Y-49067366D02*
X90778722Y-48934033D01*
X90778722Y-48934033D02*
X90778722Y-48834033D01*
X90778722Y-48834033D02*
X90812055Y-48700700D01*
X90812055Y-48700700D02*
X90845389Y-48634033D01*
X90845389Y-48634033D02*
X90912055Y-48567366D01*
X90912055Y-48567366D02*
X91012055Y-48534033D01*
X91012055Y-48534033D02*
X91078722Y-48534033D01*
X91078722Y-48534033D02*
X91178722Y-48567366D01*
X91178722Y-48567366D02*
X91212055Y-48600700D01*
X91445389Y-48534033D02*
X91878722Y-48534033D01*
X91878722Y-48534033D02*
X91645389Y-48800700D01*
X91645389Y-48800700D02*
X91745389Y-48800700D01*
X91745389Y-48800700D02*
X91812055Y-48834033D01*
X91812055Y-48834033D02*
X91845389Y-48867366D01*
X91845389Y-48867366D02*
X91878722Y-48934033D01*
X91878722Y-48934033D02*
X91878722Y-49100700D01*
X91878722Y-49100700D02*
X91845389Y-49167366D01*
X91845389Y-49167366D02*
X91812055Y-49200700D01*
X91812055Y-49200700D02*
X91745389Y-49234033D01*
X91745389Y-49234033D02*
X91545389Y-49234033D01*
X91545389Y-49234033D02*
X91478722Y-49200700D01*
X91478722Y-49200700D02*
X91445389Y-49167366D01*
X83581743Y-49167366D02*
X83548410Y-49200700D01*
X83548410Y-49200700D02*
X83448410Y-49234033D01*
X83448410Y-49234033D02*
X83381743Y-49234033D01*
X83381743Y-49234033D02*
X83281743Y-49200700D01*
X83281743Y-49200700D02*
X83215077Y-49134033D01*
X83215077Y-49134033D02*
X83181743Y-49067366D01*
X83181743Y-49067366D02*
X83148410Y-48934033D01*
X83148410Y-48934033D02*
X83148410Y-48834033D01*
X83148410Y-48834033D02*
X83181743Y-48700700D01*
X83181743Y-48700700D02*
X83215077Y-48634033D01*
X83215077Y-48634033D02*
X83281743Y-48567366D01*
X83281743Y-48567366D02*
X83381743Y-48534033D01*
X83381743Y-48534033D02*
X83448410Y-48534033D01*
X83448410Y-48534033D02*
X83548410Y-48567366D01*
X83548410Y-48567366D02*
X83581743Y-48600700D01*
X84248410Y-49234033D02*
X83848410Y-49234033D01*
X84048410Y-49234033D02*
X84048410Y-48534033D01*
X84048410Y-48534033D02*
X83981743Y-48634033D01*
X83981743Y-48634033D02*
X83915077Y-48700700D01*
X83915077Y-48700700D02*
X83848410Y-48734033D01*
X84681744Y-48534033D02*
X84748410Y-48534033D01*
X84748410Y-48534033D02*
X84815077Y-48567366D01*
X84815077Y-48567366D02*
X84848410Y-48600700D01*
X84848410Y-48600700D02*
X84881744Y-48667366D01*
X84881744Y-48667366D02*
X84915077Y-48800700D01*
X84915077Y-48800700D02*
X84915077Y-48967366D01*
X84915077Y-48967366D02*
X84881744Y-49100700D01*
X84881744Y-49100700D02*
X84848410Y-49167366D01*
X84848410Y-49167366D02*
X84815077Y-49200700D01*
X84815077Y-49200700D02*
X84748410Y-49234033D01*
X84748410Y-49234033D02*
X84681744Y-49234033D01*
X84681744Y-49234033D02*
X84615077Y-49200700D01*
X84615077Y-49200700D02*
X84581744Y-49167366D01*
X84581744Y-49167366D02*
X84548410Y-49100700D01*
X84548410Y-49100700D02*
X84515077Y-48967366D01*
X84515077Y-48967366D02*
X84515077Y-48800700D01*
X84515077Y-48800700D02*
X84548410Y-48667366D01*
X84548410Y-48667366D02*
X84581744Y-48600700D01*
X84581744Y-48600700D02*
X84615077Y-48567366D01*
X84615077Y-48567366D02*
X84681744Y-48534033D01*
X80039466Y-50058033D02*
X80039466Y-50624700D01*
X80039466Y-50624700D02*
X80072800Y-50691366D01*
X80072800Y-50691366D02*
X80106133Y-50724700D01*
X80106133Y-50724700D02*
X80172800Y-50758033D01*
X80172800Y-50758033D02*
X80306133Y-50758033D01*
X80306133Y-50758033D02*
X80372800Y-50724700D01*
X80372800Y-50724700D02*
X80406133Y-50691366D01*
X80406133Y-50691366D02*
X80439466Y-50624700D01*
X80439466Y-50624700D02*
X80439466Y-50058033D01*
X81139466Y-50758033D02*
X80739466Y-50758033D01*
X80939466Y-50758033D02*
X80939466Y-50058033D01*
X80939466Y-50058033D02*
X80872799Y-50158033D01*
X80872799Y-50158033D02*
X80806133Y-50224700D01*
X80806133Y-50224700D02*
X80739466Y-50258033D01*
%TO.C,C9*%
D11*
X87402400Y-41080380D02*
X87402400Y-40799220D01*
X88422400Y-41080380D02*
X88422400Y-40799220D01*
%TO.C,C5*%
X86173620Y-46881400D02*
X86454780Y-46881400D01*
X86173620Y-47901400D02*
X86454780Y-47901400D01*
%TO.C,C7*%
X84102400Y-41080380D02*
X84102400Y-40799220D01*
X85122400Y-41080380D02*
X85122400Y-40799220D01*
%TO.C,RN2*%
X81765766Y-65615600D02*
X81765766Y-64615600D01*
X85125766Y-65615600D02*
X85125766Y-64615600D01*
%TO.C,C8*%
X86209600Y-44660020D02*
X86209600Y-44941180D01*
X87229600Y-44660020D02*
X87229600Y-44941180D01*
%TO.C,U3*%
X81554600Y-43389800D02*
X81779600Y-43389800D01*
X81554600Y-44114800D02*
X81554600Y-43389800D01*
X81554600Y-46109800D02*
X81554600Y-45384800D01*
X81779600Y-46109800D02*
X81554600Y-46109800D01*
X84549600Y-43389800D02*
X84774600Y-43389800D01*
X84774600Y-43389800D02*
X84774600Y-44114800D01*
X84774600Y-45384800D02*
X84774600Y-46109800D01*
X84774600Y-46109800D02*
X84549600Y-46109800D01*
X85284600Y-44499800D02*
X85614600Y-44259800D01*
X85614600Y-44739800D01*
X85284600Y-44499800D01*
G36*
X85614600Y-44739800D02*
G01*
X85284600Y-44499800D01*
X85614600Y-44259800D01*
X85614600Y-44739800D01*
G37*
%TO.C,C1*%
X85723366Y-64975020D02*
X85723366Y-65256180D01*
X86743366Y-64975020D02*
X86743366Y-65256180D01*
%TO.C,X1*%
X83752732Y-39199348D02*
X79432732Y-39199348D01*
X83752732Y-42819348D02*
X83752732Y-39199348D01*
%TO.C,RN1*%
X89855732Y-39583348D02*
X90855732Y-39583348D01*
X89855732Y-42943348D02*
X90855732Y-42943348D01*
%TO.C,J1*%
X79143000Y-67703000D02*
X92063000Y-67703000D01*
X79143000Y-70353000D02*
X79143000Y-67703000D01*
X79143000Y-73003000D02*
X79143000Y-71623000D01*
X80523000Y-73003000D02*
X79143000Y-73003000D01*
X81793000Y-70353000D02*
X79143000Y-70353000D01*
X81793000Y-73003000D02*
X81793000Y-70353000D01*
X81793000Y-73003000D02*
X92063000Y-73003000D01*
X92063000Y-73003000D02*
X92063000Y-67703000D01*
%TO.C,R2*%
X85739900Y-40702542D02*
X85739900Y-41177058D01*
X86784900Y-40702542D02*
X86784900Y-41177058D01*
%TO.C,R1*%
X79535300Y-45342658D02*
X79535300Y-44868142D01*
X80580300Y-45342658D02*
X80580300Y-44868142D01*
%TO.C,C11*%
X80130853Y-64975020D02*
X80130853Y-65256180D01*
X81150853Y-64975020D02*
X81150853Y-65256180D01*
%TO.C,C6*%
X89239020Y-46881400D02*
X89520180Y-46881400D01*
X89239020Y-47901400D02*
X89520180Y-47901400D01*
%TO.C,C2*%
X90579732Y-63125768D02*
X90579732Y-63406928D01*
X91599732Y-63125768D02*
X91599732Y-63406928D01*
%TO.C,IC6*%
X79143000Y-38543000D02*
X79143000Y-74223000D01*
X79143000Y-74223000D02*
X92063000Y-74223000D01*
X84603000Y-38543000D02*
X79143000Y-38543000D01*
X92063000Y-38543000D02*
X86603000Y-38543000D01*
X92063000Y-74223000D02*
X92063000Y-38543000D01*
X86603000Y-38543000D02*
G75*
G02*
X84603000Y-38543000I-1000000J0D01*
G01*
%TO.C,U2*%
X88952200Y-43316800D02*
X90772200Y-43316800D01*
X88952200Y-44316800D02*
X88952200Y-43316800D01*
X88952200Y-46436800D02*
X88952200Y-45436800D01*
X90772200Y-43316800D02*
X90772200Y-43366800D01*
X90772200Y-44486800D02*
X90772200Y-45266800D01*
X90772200Y-46386800D02*
X90772200Y-46436800D01*
X90772200Y-46436800D02*
X88952200Y-46436800D01*
X91312200Y-45256800D02*
X91072200Y-44926800D01*
X91552200Y-44926800D01*
X91312200Y-45256800D01*
G36*
X91312200Y-45256800D02*
G01*
X91072200Y-44926800D01*
X91552200Y-44926800D01*
X91312200Y-45256800D01*
G37*
%TO.C,C3*%
X89239020Y-48405400D02*
X89520180Y-48405400D01*
X89239020Y-49425400D02*
X89520180Y-49425400D01*
%TO.C,C10*%
X86173620Y-48405400D02*
X86454780Y-48405400D01*
X86173620Y-49425400D02*
X86454780Y-49425400D01*
%TO.C,U1*%
X80493000Y-51273000D02*
X81443000Y-51273000D01*
X80493000Y-52223000D02*
X80493000Y-51273000D01*
X80493000Y-61493000D02*
X80493000Y-60543000D01*
X81443000Y-61493000D02*
X80493000Y-61493000D01*
X89763000Y-51273000D02*
X90713000Y-51273000D01*
X90713000Y-51273000D02*
X90713000Y-52223000D01*
X90713000Y-60543000D02*
X90713000Y-61493000D01*
X90713000Y-61493000D02*
X89763000Y-61493000D01*
X89763000Y-50633000D02*
X90233000Y-50293000D01*
X90233000Y-50973000D01*
X89763000Y-50633000D01*
G36*
X90233000Y-50973000D02*
G01*
X89763000Y-50633000D01*
X90233000Y-50293000D01*
X90233000Y-50973000D01*
G37*
%TD*%
M02*
