%TF.GenerationSoftware,KiCad,Pcbnew,10.0.6*%
%TF.CreationDate,2026-09-04T01:49:08+01:00*%
%TF.ProjectId,VideoULA,56696465-6f55-44c4-912e-6b696361645f,01*%
%TF.SameCoordinates,Original*%
%TF.FileFunction,Soldermask,Top*%
%TF.FilePolarity,Negative*%
%FSLAX46Y46*%
G04 Gerber Fmt 4.6, Leading zero omitted, Abs format (unit mm)*
G04 Created by KiCad (PCBNEW 10.0.6) date 2026-09-04 01:49:08*
%MOMM*%
%LPD*%
G01*
G04 APERTURE LIST*
G04 Aperture macros list*
%AMRoundRect*
0 Rectangle with rounded corners*
0 $1 Rounding radius*
0 $2 $3 $4 $5 $6 $7 $8 $9 X,Y pos of 4 corners*
0 Add a 4 corners polygon primitive as box body*
4,1,4,$2,$3,$4,$5,$6,$7,$8,$9,$2,$3,0*
0 Add four circle primitives for the rounded corners*
1,1,$1+$1,$2,$3*
1,1,$1+$1,$4,$5*
1,1,$1+$1,$6,$7*
1,1,$1+$1,$8,$9*
0 Add four rect primitives between the rounded corners*
20,1,$1+$1,$2,$3,$4,$5,0*
20,1,$1+$1,$4,$5,$6,$7,0*
20,1,$1+$1,$6,$7,$8,$9,0*
20,1,$1+$1,$8,$9,$2,$3,0*%
G04 Aperture macros list end*
%ADD10RoundRect,0.225000X0.250000X-0.225000X0.250000X0.225000X-0.250000X0.225000X-0.250000X-0.225000X0*%
%ADD11RoundRect,0.225000X-0.225000X-0.250000X0.225000X-0.250000X0.225000X0.250000X-0.225000X0.250000X0*%
%ADD12R,0.500000X0.800000*%
%ADD13R,0.400000X0.800000*%
%ADD14RoundRect,0.225000X-0.250000X0.225000X-0.250000X-0.225000X0.250000X-0.225000X0.250000X0.225000X0*%
%ADD15RoundRect,0.062500X-0.350000X0.062500X-0.350000X-0.062500X0.350000X-0.062500X0.350000X0.062500X0*%
%ADD16RoundRect,0.062500X-0.062500X0.350000X-0.062500X-0.350000X0.062500X-0.350000X0.062500X0.350000X0*%
%ADD17R,1.500000X1.000000*%
%ADD18RoundRect,0.250000X0.400000X0.350000X-0.400000X0.350000X-0.400000X-0.350000X0.400000X-0.350000X0*%
%ADD19R,0.800000X0.500000*%
%ADD20R,0.800000X0.400000*%
%ADD21R,1.700000X1.700000*%
%ADD22C,1.700000*%
%ADD23RoundRect,0.200000X-0.275000X0.200000X-0.275000X-0.200000X0.275000X-0.200000X0.275000X0.200000X0*%
%ADD24RoundRect,0.200000X0.275000X-0.200000X0.275000X0.200000X-0.275000X0.200000X-0.275000X-0.200000X0*%
%ADD25RoundRect,0.250000X-0.550000X-0.550000X0.550000X-0.550000X0.550000X0.550000X-0.550000X0.550000X0*%
%ADD26C,1.600000*%
%ADD27RoundRect,0.150000X0.512500X0.150000X-0.512500X0.150000X-0.512500X-0.150000X0.512500X-0.150000X0*%
%ADD28RoundRect,0.075000X-0.075000X0.662500X-0.075000X-0.662500X0.075000X-0.662500X0.075000X0.662500X0*%
%ADD29RoundRect,0.075000X-0.662500X0.075000X-0.662500X-0.075000X0.662500X-0.075000X0.662500X0.075000X0*%
G04 APERTURE END LIST*
D10*
%TO.C,C9*%
X87912400Y-41714800D03*
X87912400Y-40164800D03*
%TD*%
D11*
%TO.C,C5*%
X85539200Y-47391400D03*
X87089200Y-47391400D03*
%TD*%
D10*
%TO.C,C7*%
X84612400Y-41714800D03*
X84612400Y-40164800D03*
%TD*%
D12*
%TO.C,RN2*%
X84645766Y-64215600D03*
D13*
X83845766Y-64215600D03*
X83045766Y-64215600D03*
D12*
X82245766Y-64215600D03*
X82245766Y-66015600D03*
D13*
X83045766Y-66015600D03*
X83845766Y-66015600D03*
D12*
X84645766Y-66015600D03*
%TD*%
D14*
%TO.C,C8*%
X86719600Y-44025600D03*
X86719600Y-45575600D03*
%TD*%
D15*
%TO.C,U3*%
X84602100Y-44499800D03*
D16*
X84164600Y-43562300D03*
X83664600Y-43562300D03*
X83164600Y-43562300D03*
X82664600Y-43562300D03*
X82164600Y-43562300D03*
D15*
X81727100Y-44499800D03*
X81727100Y-44999800D03*
D16*
X82164600Y-45937300D03*
X82664600Y-45937300D03*
X83164600Y-45937300D03*
X83664600Y-45937300D03*
X84164600Y-45937300D03*
D15*
X84602100Y-44999800D03*
D17*
X83164600Y-44749800D03*
%TD*%
D14*
%TO.C,C1*%
X86233366Y-64340600D03*
X86233366Y-65890600D03*
%TD*%
D18*
%TO.C,X1*%
X82642732Y-40059348D03*
X80542732Y-40059348D03*
X80542732Y-41959348D03*
X82642732Y-41959348D03*
%TD*%
D19*
%TO.C,RN1*%
X91255732Y-42463348D03*
D20*
X91255732Y-41663348D03*
X91255732Y-40863348D03*
D19*
X91255732Y-40063348D03*
X89455732Y-40063348D03*
D20*
X89455732Y-40863348D03*
X89455732Y-41663348D03*
D19*
X89455732Y-42463348D03*
%TD*%
D21*
%TO.C,J1*%
X80523000Y-71623000D03*
D22*
X80523000Y-69083000D03*
X83063000Y-71623000D03*
X83063000Y-69083000D03*
X85603000Y-71623000D03*
X85603000Y-69083000D03*
X88143000Y-71623000D03*
X88143000Y-69083000D03*
X90683000Y-71623000D03*
X90683000Y-69083000D03*
%TD*%
D23*
%TO.C,R2*%
X86262400Y-40114800D03*
X86262400Y-41764800D03*
%TD*%
D24*
%TO.C,R1*%
X80057800Y-45930400D03*
X80057800Y-44280400D03*
%TD*%
D14*
%TO.C,C11*%
X80640853Y-64340600D03*
X80640853Y-65890600D03*
%TD*%
D11*
%TO.C,C6*%
X88604600Y-47391400D03*
X90154600Y-47391400D03*
%TD*%
D14*
%TO.C,C2*%
X91089732Y-62491348D03*
X91089732Y-64041348D03*
%TD*%
D25*
%TO.C,IC6*%
X77983000Y-39873000D03*
D26*
X77983000Y-42413000D03*
X77983000Y-44953000D03*
X77983000Y-47493000D03*
X77983000Y-50033000D03*
X77983000Y-52573000D03*
X77983000Y-55113000D03*
X77983000Y-57653000D03*
X77983000Y-60193000D03*
X77983000Y-62733000D03*
X77983000Y-65273000D03*
X77983000Y-67813000D03*
X77983000Y-70353000D03*
X77983000Y-72893000D03*
X93223000Y-72893000D03*
X93223000Y-70353000D03*
X93223000Y-67813000D03*
X93223000Y-65273000D03*
X93223000Y-62733000D03*
X93223000Y-60193000D03*
X93223000Y-57653000D03*
X93223000Y-55113000D03*
X93223000Y-52573000D03*
X93223000Y-50033000D03*
X93223000Y-47493000D03*
X93223000Y-44953000D03*
X93223000Y-42413000D03*
X93223000Y-39873000D03*
%TD*%
D27*
%TO.C,U2*%
X90999700Y-45826800D03*
X90999700Y-43926800D03*
X88724700Y-44876800D03*
%TD*%
D11*
%TO.C,C3*%
X88604600Y-48915400D03*
X90154600Y-48915400D03*
%TD*%
%TO.C,C10*%
X85539200Y-48915400D03*
X87089200Y-48915400D03*
%TD*%
D28*
%TO.C,U1*%
X89353000Y-50720500D03*
X88853000Y-50720500D03*
X88353000Y-50720500D03*
X87853000Y-50720500D03*
X87353000Y-50720500D03*
X86853000Y-50720500D03*
X86353000Y-50720500D03*
X85853000Y-50720500D03*
X85353000Y-50720500D03*
X84853000Y-50720500D03*
X84353000Y-50720500D03*
X83853000Y-50720500D03*
X83353000Y-50720500D03*
X82853000Y-50720500D03*
X82353000Y-50720500D03*
X81853000Y-50720500D03*
D29*
X79940500Y-52633000D03*
X79940500Y-53133000D03*
X79940500Y-53633000D03*
X79940500Y-54133000D03*
X79940500Y-54633000D03*
X79940500Y-55133000D03*
X79940500Y-55633000D03*
X79940500Y-56133000D03*
X79940500Y-56633000D03*
X79940500Y-57133000D03*
X79940500Y-57633000D03*
X79940500Y-58133000D03*
X79940500Y-58633000D03*
X79940500Y-59133000D03*
X79940500Y-59633000D03*
X79940500Y-60133000D03*
D28*
X81853000Y-62045500D03*
X82353000Y-62045500D03*
X82853000Y-62045500D03*
X83353000Y-62045500D03*
X83853000Y-62045500D03*
X84353000Y-62045500D03*
X84853000Y-62045500D03*
X85353000Y-62045500D03*
X85853000Y-62045500D03*
X86353000Y-62045500D03*
X86853000Y-62045500D03*
X87353000Y-62045500D03*
X87853000Y-62045500D03*
X88353000Y-62045500D03*
X88853000Y-62045500D03*
X89353000Y-62045500D03*
D29*
X91265500Y-60133000D03*
X91265500Y-59633000D03*
X91265500Y-59133000D03*
X91265500Y-58633000D03*
X91265500Y-58133000D03*
X91265500Y-57633000D03*
X91265500Y-57133000D03*
X91265500Y-56633000D03*
X91265500Y-56133000D03*
X91265500Y-55633000D03*
X91265500Y-55133000D03*
X91265500Y-54633000D03*
X91265500Y-54133000D03*
X91265500Y-53633000D03*
X91265500Y-53133000D03*
X91265500Y-52633000D03*
%TD*%
D21*
%TO.C,J2*%
X80523000Y-48763000D03*
%TD*%
M02*
